<?xml version="1.0" encoding="utf-8"?>
<!-- Generator: Adobe Illustrator 19.0.0, SVG Export Plug-In . SVG Version: 6.00 Build 0)  -->
<svg version="1.1" id="Layer_1" xmlns="http://www.w3.org/2000/svg" xmlns:xlink="http://www.w3.org/1999/xlink" x="0px" y="0px"
	 viewBox="0 0 971.2 266.2" style="enable-background:new 0 0 971.2 266.2;" xml:space="preserve">
<style type="text/css">
	.st0{fill:#6AC4AE;}
</style>
<g>
	<polygon points="566.6,78.7 551.3,88.9 551.3,110.6 540.7,110.6 540.7,124.3 551.3,124.3 551.3,187.5 566.6,187.5 566.6,124.3 
		580.9,124.3 580.9,110.6 566.6,110.6 	"/>
	<path d="M820.4,108.8c-22,0-40.1,18.1-40.1,40.1c0,22,18.1,40.3,40.1,40.3c22,0,40-18.3,40-40.3
		C860.3,126.9,842.4,108.8,820.4,108.8z M820.4,175.2c-14.6,0-24.3-11.6-24.3-26.2c0-14.3,9.7-26,24.3-26c14.8,0,24.1,11.8,24.1,26
		C844.5,163.5,835.1,175.2,820.4,175.2z"/>
	<path d="M393.2,52.7c-14.6,0-21.5,9.3-21.5,27.5v30.4h-10.6v13.7h10.6v63.2h15.5v-63.2h14.3v-13.7h-14.3V78.7c0-7.6,3.2-12,9-12
		c1.6,0,3.3,0.2,5.1,0.7l1.8,0.5V54C399.4,53,395.7,52.7,393.2,52.7z"/>
	<path d="M740,108.8c-10.7,0-16.3,4.4-23.1,10.7c-0.6,0.5-1,1-1.4,1.3v-10.3h-15.5v76.9h15.5v-42.1c0-14.3,8.8-22.5,20.8-22.5
		c11.4,0,15.8,7,15.8,19.2v45.4h15.5v-48.9C767.7,121.8,761.3,108.8,740,108.8z"/>
	<path d="M677.7,167.8c-6.2,0-10.9,4.8-10.9,10.9c0,6.3,5.1,10.9,10.9,10.9c6.2,0,10.9-4.9,10.9-11.1
		C688.6,172.7,683.9,167.8,677.7,167.8z"/>
	<g>
		<path d="M658.8,148.9c0-21.5-12.3-40.1-35.9-40.1c-22,0-36.6,18.1-36.6,40.1c0,22.5,13.6,40.3,40.8,40.3c9,0,18.2-2.6,22.7-5.8
			c0.5-0.4,1-0.7,1.4-1v-15.7c-7.5,6.1-17.4,8.4-24.1,8.4c-14.1,0-23.1-6.9-24.3-18c-0.1-0.5-0.1-1.1-0.1-1.6h56.1V148.9z
			 M601.9,143.3c0-0.7,0-1.3,0.1-1.8c1.4-10.4,9.3-18.8,20.9-18.8c12.7,0,18.9,8.3,20.2,18.8c0.1,0.7,0.2,1.3,0.2,1.8H601.9z"/>
	</g>
	<path d="M439.9,108.8c-7.7,0-16.3,2.2-21.5,5.7v14.4c0.5-0.4,1.1-0.8,1.8-1.4c2.6-2.1,9-5.6,18.3-5.6c12.7,0,18.3,5.5,18.3,15.3
		v6.2c-0.5-0.4-1-0.8-1.4-1.1c-3.2-2.5-10.2-6.2-20.1-6.2c-15.8,0-29.6,9.7-29.6,26.8c0,17.6,14.3,26.4,29.6,26.4
		c8.3,0,15.7-3.5,20.6-9.7c0.4-0.6,0.9-1.2,1.4-1.9v9.8H472V137C472,123.8,467,108.8,439.9,108.8z M438.4,176.6
		c-10.9,0-17.4-5.8-17.4-14.3c0-8.3,7-13.9,17.4-13.9c9.7,0,17.9,6.1,17.9,13.7C456.2,169.5,448.4,176.6,438.4,176.6z M459.3,145.5
		C459.3,145.5,459.3,145.5,459.3,145.5C459.4,145.5,459.4,145.5,459.3,145.5z"/>
	<polygon class="st0" points="330.5,110.6 253.6,187.5 222.6,187.5 299.6,110.6 	"/>
	<polygon class="st0" points="268.6,110.6 191.7,187.5 160.7,187.5 237.6,110.6 	"/>
	<polygon class="st0" points="206.7,110.6 129.8,187.5 98.8,187.5 175.7,110.6 	"/>
	<path d="M532.9,110.6h-3c-9.7,0-19.6,4.4-24.8,12.6v-12.6h-15.5v76.9h15.5v-32.2c0-19.7,9.9-31,24.9-31h2.8V110.6z"/>
</g>
</svg>
