<?xml version="1.0" encoding="utf-8"?>
<!-- Generator: Adobe Illustrator 19.1.0, SVG Export Plug-In . SVG Version: 6.00 Build 0)  -->
<svg version="1.1" id="Layer_1" xmlns="http://www.w3.org/2000/svg" xmlns:xlink="http://www.w3.org/1999/xlink" x="0px" y="0px"
	 viewBox="0 0 294 180.67" style="enable-background:new 0 0 294 180.67;" xml:space="preserve">
<style type="text/css">
	.st0{fill:#F5F5F5;}
	.st1{fill:#1D1D1B;}
	.st2{fill:#71C1AC;}
	.st3{fill:#6AC4AE;}
	.st4{fill:none;stroke:#1D1D1B;stroke-width:2.875;}
	.st5{fill:#FFFFFF;}
	.st6{fill:#6AC4AE;stroke:#1D1D1B;stroke-width:2.875;}
	.st7{fill:#E6E6E6;}
	.st8{fill:#CCCCCC;}
	.st9{fill:#FFFFFF;stroke:#1D1D1B;stroke-width:2.875;}
	.st10{fill:#000002;}
	.st11{fill:#01BDA1;}
	.st12{fill:#DBDCD7;}
</style>
<g>
	<g>
		<rect x="0" y="0" class="st11" width="294" height="180.67"/>
	</g>
	<g>
		<g>
			<g>
				<path class="st5" d="M85.03,118.03c0,12.59-10.2,22.78-22.78,22.78c-12.59,0-22.78-10.2-22.78-22.78
					c0-12.58,10.2-22.78,22.78-22.78C74.83,95.25,85.03,105.45,85.03,118.03 M95.09,118.03c0-18.14-14.7-32.84-32.84-32.84
					s-32.84,14.7-32.84,32.84s14.71,32.84,32.84,32.84S95.09,136.17,95.09,118.03"/>
			</g>
			<g>
				<path class="st1" d="M62.25,152.31c-18.9,0-34.28-15.38-34.28-34.28s15.38-34.28,34.28-34.28c18.9,0,34.28,15.38,34.28,34.28
					S81.15,152.31,62.25,152.31z M62.25,86.63c-17.32,0-31.41,14.09-31.41,31.4s14.09,31.4,31.41,31.4c17.32,0,31.4-14.09,31.4-31.4
					S79.57,86.63,62.25,86.63z M62.25,142.25c-13.35,0-24.22-10.86-24.22-24.22S48.9,93.82,62.25,93.82
					c13.35,0,24.22,10.86,24.22,24.22S75.61,142.25,62.25,142.25z M62.25,96.69c-11.77,0-21.35,9.58-21.35,21.35
					s9.58,21.35,21.35,21.35c11.77,0,21.35-9.58,21.35-21.35S74.02,96.69,62.25,96.69z"/>
			</g>
		</g>
		<g>
			<g>
				<path class="st3" d="M102.53,110.39c0,0,0-5.42-5.42-5.42H27.4c0,0-5.42,0-5.42,5.42v15.4c0,0,0,5.42,5.42,5.42h69.7
					c0,0,5.42,0,5.42-5.42V110.39z"/>
				<path class="st1" d="M97.1,132.44H27.4c-5.26,0-6.65-4.35-6.65-6.65v-15.4c0-5.26,4.35-6.65,6.65-6.65h69.7
					c5.26,0,6.65,4.35,6.65,6.65v15.4C103.76,131.05,99.4,132.44,97.1,132.44z M27.4,106.2c-0.42,0-4.19,0.16-4.19,4.19v15.4
					c0,0.42,0.16,4.19,4.19,4.19h69.7c0.42,0,4.19-0.16,4.19-4.19v-15.39c-0.01-0.44-0.17-4.2-4.19-4.2H27.4z"/>
			</g>
		</g>
		<g>
			<g>
				<polygon class="st5" points="82.4,111.44 69.02,124.73 63.64,124.73 77.01,111.44 				"/>
			</g>
			<g>
				<polygon class="st5" points="71.63,111.44 58.26,124.73 52.87,124.73 66.24,111.44 				"/>
			</g>
			<g>
				<polygon class="st5" points="60.86,111.44 47.49,124.73 42.11,124.73 55.48,111.44 				"/>
			</g>
		</g>
	</g>
</g>
</svg>
