<?xml version="1.0" encoding="utf-8"?>
<!-- Generator: Adobe Illustrator 19.1.0, SVG Export Plug-In . SVG Version: 6.00 Build 0)  -->
<svg version="1.1" id="Layer_1" xmlns="http://www.w3.org/2000/svg" xmlns:xlink="http://www.w3.org/1999/xlink" x="0px" y="0px"
	 width="64px" height="32.03px" viewBox="0 0 64 32.03" style="enable-background:new 0 0 64 32.03;" xml:space="preserve">
<style type="text/css">
	.st0{fill:#FFFFFF;}
	.st1{fill:#71C1AC;}
</style>
<g>
	<g>
		<rect x="1.17" y="2.79" class="st0" width="57.08" height="15.42"/>
		<rect x="51.58" y="7.7" class="st0" width="8.58" height="10"/>
	</g>
	<g>
		<ellipse class="st1" cx="12.27" cy="28.09" rx="3.99" ry="3.94"/>
		<ellipse class="st1" cx="47.09" cy="28.09" rx="3.99" ry="3.94"/>
		<path class="st1" d="M57.49,0H0v28.09h5.31c0-3.79,3.11-6.87,6.96-6.87c3.84,0,6.96,3.08,6.96,6.87h20.91
			c0-3.79,3.11-6.87,6.96-6.87c3.84,0,6.96,3.08,6.96,6.87H64V14.28L57.49,0z M13.9,13.38H3.52V4.53H13.9V13.38z M29.01,13.38H18.63
			V4.53h10.38V13.38z M44.12,13.38H33.74V4.53h10.38V13.38z M48.86,13.38V4.53h6.17l3.86,8.85H48.86z"/>
	</g>
</g>
</svg>
