<?xml version="1.0" encoding="utf-8"?>
<!-- Generator: Adobe Illustrator 19.1.0, SVG Export Plug-In . SVG Version: 6.00 Build 0)  -->
<svg version="1.1" id="Layer_1" xmlns="http://www.w3.org/2000/svg" xmlns:xlink="http://www.w3.org/1999/xlink" x="0px" y="0px"
	 width="57.92px" height="31.96px" viewBox="0 0 57.92 31.96" style="enable-background:new 0 0 57.92 31.96;" xml:space="preserve"
	>
<style type="text/css">
	.st0{fill:#FFFFFF;}
	.st1{fill:#71C1AC;}
</style>
<rect x="8.16" y="10.49" class="st0" width="22.42" height="3.55"/>
<g>
	<g>
		<g>
			<path class="st1" d="M0,30.95c1.5,0.53,3.15,1.01,6.1,1.01c6.72,0,6.72-2.46,13.43-2.46s6.72,2.46,13.43,2.46
				c6.72,0,6.72-2.46,13.43-2.46c2.55,0,4.13,0.36,5.48,0.8l6.03-11.2H0V30.95z"/>
		</g>
	</g>
	<g>
		<rect x="21.03" class="st1" width="5.14" height="5.14"/>
	</g>
	<path class="st1" d="M34.42,7.48h-23.2v9.29h32.03L34.42,7.48z M19.84,13.05h-5.39V10.9h5.39V13.05z M27.15,13.05h-5.39V10.9h5.39
		V13.05z M29.08,13.05V10.9h5.39v2.16H29.08z"/>
</g>
</svg>
