<?xml version="1.0" encoding="utf-8"?>
<!-- Generator: Adobe Illustrator 19.1.0, SVG Export Plug-In . SVG Version: 6.00 Build 0)  -->
<svg version="1.1" id="Layer_1" xmlns="http://www.w3.org/2000/svg" xmlns:xlink="http://www.w3.org/1999/xlink" x="0px" y="0px"
	 viewBox="0 0 294 180.67" style="enable-background:new 0 0 294 180.67;" xml:space="preserve">
<style type="text/css">
	.st0{fill:#F5F5F5;}
	.st1{fill:#1D1D1B;}
	.st2{fill:#71C1AC;}
	.st3{fill:#6AC4AE;}
	.st4{fill:none;stroke:#1D1D1B;stroke-width:2.875;}
	.st5{fill:#FFFFFF;}
	.st6{fill:#6AC4AE;stroke:#1D1D1B;stroke-width:2.875;}
	.st7{fill:#E6E6E6;}
	.st8{fill:#CCCCCC;}
	.st9{fill:#FFFFFF;stroke:#1D1D1B;stroke-width:2.875;}
	.st10{fill:#000002;}
	.st11{fill:#01BDA1;}
	.st12{fill:#DBDCD7;}
</style>
<g>
	<g>
		<g>
			<rect class="st10" width="294" height="180.67"/>
		</g>
	</g>
	<g>
		<g>
			<g>
				<g>
					<g>
						<path class="st2" d="M61.44,157.5c-19.5,0-35.36-15.86-35.36-35.36s15.86-35.36,35.36-35.36c19.5,0,35.36,15.86,35.36,35.36
							S80.94,157.5,61.44,157.5z M61.44,96.01c-14.41,0-26.13,11.72-26.13,26.13s11.72,26.13,26.13,26.13s26.13-11.72,26.13-26.13
							S75.85,96.01,61.44,96.01z"/>
					</g>
				</g>
			</g>
		</g>
		<g>
			<rect x="50.9" y="68.23" class="st3" width="21.09" height="11.99"/>
			<path class="st1" d="M73.32,81.55H49.56V66.89h23.76V81.55z M52.23,78.88h18.42v-9.32H52.23V78.88z"/>
		</g>
		<g>
			
				<rect x="89.36" y="86.24" transform="matrix(0.7071 0.7071 -0.7071 0.7071 91.3761 -40.4413)" class="st3" width="10.29" height="7.68"/>
			<path class="st1" d="M95.43,98.1l-8.94-8.94l7.1-7.1l8.94,8.94L95.43,98.1z M89.82,89.16l5.6,5.6L99.19,91l-5.6-5.6L89.82,89.16z
				"/>
		</g>
		<g>
			<path class="st5" d="M61.44,96.01c-14.41,0-26.13,11.72-26.13,26.13s11.72,26.13,26.13,26.13s26.13-11.72,26.13-26.13
				S75.85,96.01,61.44,96.01z"/>
		</g>
		<g>
			<circle class="st1" cx="61.44" cy="122.14" r="4.26"/>
		</g>
		<g>
			<path class="st1" d="M61.44,158.84c-20.23,0-36.69-16.46-36.69-36.69s16.46-36.69,36.69-36.69s36.69,16.46,36.69,36.69
				S81.68,158.84,61.44,158.84z M61.44,88.12c-18.76,0-34.03,15.26-34.03,34.03s15.26,34.03,34.03,34.03
				c18.76,0,34.03-15.26,34.03-34.03S80.2,88.12,61.44,88.12z"/>
		</g>
		<g>
			
				<rect x="44.21" y="112.49" transform="matrix(0.7071 0.7071 -0.7071 0.7071 96.1037 -4.2495)" class="st1" width="17.94" height="2.78"/>
		</g>
	</g>
</g>
</svg>
