<?xml version="1.0" encoding="utf-8"?>
<!-- Generator: Adobe Illustrator 19.1.0, SVG Export Plug-In . SVG Version: 6.00 Build 0)  -->
<svg version="1.1" id="Layer_1" xmlns="http://www.w3.org/2000/svg" xmlns:xlink="http://www.w3.org/1999/xlink" x="0px" y="0px"
	 viewBox="0 0 294 180.67" style="enable-background:new 0 0 294 180.67;" xml:space="preserve">
<style type="text/css">
	.st0{fill:#F5F5F5;}
	.st1{fill:#1D1D1B;}
	.st2{fill:#71C1AC;}
	.st3{fill:#6AC4AE;}
	.st4{fill:none;stroke:#1D1D1B;stroke-width:2.875;}
	.st5{fill:#FFFFFF;}
	.st6{fill:#6AC4AE;stroke:#1D1D1B;stroke-width:2.875;}
	.st7{fill:#E6E6E6;}
	.st8{fill:#CCCCCC;}
	.st9{fill:#FFFFFF;stroke:#1D1D1B;stroke-width:2.875;}
	.st10{fill:#000002;}
	.st11{fill:#01BDA1;}
	.st12{fill:#DBDCD7;}
</style>
<g>
	<rect x="0" y="0" class="st12" width="294" height="180.67"/>
	<g>
		<g>
			<rect x="33.26" y="131.5" class="st5" width="19.01" height="27.56"/>
		</g>
		<g>
			<path class="st3" d="M49.5,106H35.78c-4.09,0-7.41,3.32-7.41,7.41v19.43h28.54V113.4C56.91,109.31,53.59,106,49.5,106z"/>
		</g>
		<g>
			<circle class="st5" cx="42.64" cy="92.14" r="8.37"/>
			<path class="st1" d="M42.64,101.68c-5.26,0-9.54-4.28-9.54-9.54c0-5.26,4.28-9.54,9.54-9.54c5.26,0,9.54,4.28,9.54,9.54
				C52.18,97.4,47.9,101.68,42.64,101.68z M42.64,84.95c-3.96,0-7.19,3.23-7.19,7.19c0,3.96,3.23,7.19,7.19,7.19
				s7.19-3.23,7.19-7.19C49.83,88.18,46.6,84.95,42.64,84.95z"/>
		</g>
		<g>
			<path class="st1" d="M58.09,132.83h-2.35V113.4c0-3.44-2.8-6.23-6.23-6.23H35.78c-3.44,0-6.23,2.8-6.23,6.23v19.43H27.2V113.4
				c0-4.73,3.85-8.58,8.58-8.58H49.5c4.73,0,8.58,3.85,8.58,8.58V132.83z"/>
		</g>
		<g>
			<polygon class="st1" points="34.18,158.37 31.83,158.37 31.83,134.01 27.2,134.01 27.2,131.66 34.18,131.66 			"/>
		</g>
		<g>
			<polygon class="st1" points="53.45,158.37 51.1,158.37 51.1,131.66 58.09,131.66 58.09,134.01 53.45,134.01 			"/>
		</g>
		<g>
			<rect x="35.64" y="106.6" class="st1" width="2.35" height="18.5"/>
		</g>
		<g>
			<rect x="47.3" y="106.6" class="st1" width="2.35" height="18.5"/>
		</g>
		<g>
			<rect x="41.47" y="138.71" class="st1" width="2.35" height="19.66"/>
		</g>
		<g>
			<rect x="72.55" y="125.7" class="st5" width="19.01" height="32.63"/>
		</g>
		<g>
			<path class="st3" d="M88.8,98.92H75.07c-4.09,0-7.41,3.32-7.41,7.41v20.7H96.2v-20.7C96.2,102.24,92.89,98.92,88.8,98.92z"/>
		</g>
		<g>
			<circle class="st5" cx="81.93" cy="85.07" r="8.37"/>
			<path class="st1" d="M81.93,94.61c-5.26,0-9.54-4.28-9.54-9.54c0-5.26,4.28-9.54,9.54-9.54s9.54,4.28,9.54,9.54
				C91.47,90.33,87.19,94.61,81.93,94.61z M81.93,77.88c-3.96,0-7.19,3.23-7.19,7.19c0,3.96,3.23,7.19,7.19,7.19
				s7.19-3.23,7.19-7.19C89.12,81.1,85.9,77.88,81.93,77.88z"/>
		</g>
		<g>
			<path class="st1" d="M97.38,127.03h-2.35v-20.7c0-3.44-2.8-6.23-6.23-6.23H75.07c-3.44,0-6.23,2.8-6.23,6.23v20.7h-2.35v-20.7
				c0-4.73,3.85-8.58,8.58-8.58H88.8c4.73,0,8.58,3.85,8.58,8.58V127.03z"/>
		</g>
		<g>
			<polygon class="st1" points="73.48,157.63 71.12,157.63 71.12,128.21 66.49,128.21 66.49,125.85 73.48,125.85 			"/>
		</g>
		<g>
			<polygon class="st1" points="92.74,157.63 90.39,157.63 90.39,125.85 97.38,125.85 97.38,128.21 92.74,128.21 			"/>
		</g>
		<g>
			<rect x="80.76" y="132.9" class="st1" width="2.35" height="24.73"/>
		</g>
		<g>
			<rect x="14.45" y="157.3" class="st1" width="97.18" height="2.35"/>
		</g>
		<g>
			<rect x="26.87" y="89.68" class="st1" width="24.56" height="2.35"/>
		</g>
		<g>
			<rect x="74.76" y="106.58" class="st1" width="14.71" height="2.35"/>
		</g>
		<g>
			<rect x="74.76" y="113.65" class="st1" width="14.71" height="2.35"/>
		</g>
	</g>
</g>
</svg>
