<?xml version="1.0" encoding="utf-8"?>
<!-- Generator: Adobe Illustrator 19.0.0, SVG Export Plug-In . SVG Version: 6.00 Build 0)  -->
<svg version="1.1" id="Layer_1" xmlns="http://www.w3.org/2000/svg" xmlns:xlink="http://www.w3.org/1999/xlink" x="0px" y="0px"
	 width="210px" height="51px" viewBox="-129 359.5 210 51" style="enable-background:new -129 359.5 210 51;" xml:space="preserve">
<style type="text/css">
	.st0{fill:#6AC4AE;}
</style>
<g>
	<polygon points="-3.5,373.1 -7.5,375.7 -7.5,381.3 -10.2,381.3 -10.2,384.8 -7.5,384.8 -7.5,400.9 -3.5,400.9 -3.5,384.8 
		0.1,384.8 0.1,381.3 -3.5,381.3 	"/>
	<path d="M61.3,380.8c-5.6,0-10.3,4.6-10.3,10.3c0,5.6,4.6,10.3,10.3,10.3s10.2-4.7,10.2-10.3S66.9,380.8,61.3,380.8z M61.3,397.7
		c-3.7,0-6.2-3-6.2-6.7c0-3.6,2.5-6.6,6.2-6.6c3.8,0,6.2,3,6.2,6.6C67.5,394.8,65.1,397.7,61.3,397.7z"/>
	<path d="M-47.8,366.5c-3.7,0-5.5,2.4-5.5,7v7.8H-56v3.5h2.7v16.1h3.9v-16.1h3.6v-3.5h-3.6v-8.2c0-1.9,0.8-3.1,2.3-3.1
		c0.4,0,0.9,0.1,1.3,0.2l0.5,0.1v-3.5C-46.2,366.6-47.2,366.5-47.8,366.5z"/>
	<path d="M40.8,380.8c-2.7,0-4.2,1.1-5.9,2.7c-0.2,0.1-0.2,0.2-0.3,0.3v-2.6h-3.9v19.6h3.9v-10.8c0-3.6,2.2-5.8,5.3-5.8
		c2.9,0,4,1.8,4,4.9v11.6h3.9v-12.5C47.8,384.1,46.2,380.8,40.8,380.8z"/>
	<path d="M24.9,395.9c-1.6,0-2.8,1.3-2.8,2.8c0,1.6,1.3,2.8,2.8,2.8c1.6,0,2.8-1.3,2.8-2.9C27.6,397.1,26.4,395.9,24.9,395.9z"/>
	<g>
		<path d="M20,391.1c0-5.5-3.1-10.3-9.2-10.3c-5.6,0-9.4,4.6-9.4,10.3c0,5.8,3.5,10.3,10.4,10.3c2.3,0,4.7-0.7,5.8-1.5
			c0.1-0.1,0.2-0.2,0.3-0.2v-4c-1.9,1.5-4.4,2.2-6.2,2.2c-3.6,0-5.9-1.8-6.2-4.6c0-0.1,0-0.3,0-0.4H20L20,391.1L20,391.1z
			 M5.5,389.7c0-0.2,0-0.3,0-0.5c0.3-2.7,2.4-4.8,5.4-4.8c3.3,0,4.8,2.1,5.1,4.8c0,0.2,0.1,0.3,0.1,0.5H5.5z"/>
	</g>
	<path d="M-35.9,380.8c-1.9,0-4.2,0.6-5.5,1.5v3.7c0.1-0.1,0.3-0.2,0.5-0.3c0.7-0.5,2.3-1.4,4.7-1.4c3.3,0,4.7,1.4,4.7,3.9v1.6
		c-0.1-0.1-0.2-0.2-0.3-0.3c-0.8-0.6-2.6-1.6-5.1-1.6c-4,0-7.6,2.5-7.6,6.8c0,4.5,3.6,6.7,7.6,6.7c2.1,0,4-0.9,5.2-2.5
		c0.1-0.2,0.2-0.3,0.3-0.5v2.5h3.8v-12.9C-27.7,384.6-29,380.8-35.9,380.8z M-36.3,398.1c-2.8,0-4.4-1.5-4.4-3.6
		c0-2.1,1.8-3.5,4.4-3.5c2.5,0,4.6,1.5,4.6,3.5C-31.7,396.3-33.7,398.1-36.3,398.1z M-31,390.2L-31,390.2
		C-30.9,390.2-30.9,390.2-31,390.2z"/>
	<polygon class="st0" points="-63.9,381.3 -83.5,400.9 -91.4,400.9 -71.7,381.3 	"/>
	<polygon class="st0" points="-79.7,381.3 -99.3,400.9 -107.2,400.9 -87.6,381.3 	"/>
	<polygon class="st0" points="-95.5,381.3 -115.1,400.9 -123,400.9 -103.4,381.3 	"/>
	<path d="M-12.2,381.3h-0.7c-2.5,0-5,1.1-6.3,3.2v-3.2h-3.9v19.6h3.9v-8.2c0-5,2.5-7.9,6.4-7.9h0.7L-12.2,381.3L-12.2,381.3z"/>
</g>
</svg>
