<?xml version="1.0" encoding="utf-8"?>
<!-- Generator: Adobe Illustrator 19.0.0, SVG Export Plug-In . SVG Version: 6.00 Build 0)  -->
<svg version="1.1" id="Layer_1" xmlns="http://www.w3.org/2000/svg" xmlns:xlink="http://www.w3.org/1999/xlink" x="0px" y="0px"
	 viewBox="0 0 269 89" style="enable-background:new 0 0 269 89;" xml:space="preserve">
<style type="text/css">
	.st0{fill:#FFFFFF;}
</style>
<g>
	<g>
		<g>
			<g>
				<g>
					<path class="st0" d="M91.7,50.6V52h-1.6v1.3h1.6V63h1.8v-9.6h2.8V52h-2.8v-1.4c0-1.2,0.6-2.3,2.2-2.3c0.4,0,0.8,0.1,1.2,0.1
						l0.1-1.2c-0.4-0.1-1-0.2-1.6-0.2C92.7,47.1,91.7,48.7,91.7,50.6z"/>
					<path class="st0" d="M140.6,54.8c0-0.9,0.8-1.5,2.1-1.5c0.9,0,1.9,0.2,2.9,0.6l0.1-1.5c-0.9-0.4-1.9-0.6-3-0.6
						c-2.5,0-3.8,1.2-3.8,3.1c0,3.7,5.6,2.5,5.6,5c0,1-0.7,1.8-2.3,1.8c-1,0-2.3-0.3-3.1-1l-0.2,1.5c0.8,0.6,2.1,0.9,3.4,0.9
						c2.7,0,3.9-1.4,3.9-3.4C146.2,55.9,140.6,57.2,140.6,54.8z"/>
					<path class="st0" d="M164.3,51.8c-3.3,0-4.8,1.6-4.8,5.7s1.5,5.7,4.8,5.7c3.3,0,4.7-1.6,4.7-5.7S167.6,51.8,164.3,51.8z
						 M164.3,61.8c-2.2,0-3-1.1-3-4.2s0.8-4.2,3-4.2c2.1,0,2.9,1.1,2.9,4.2C167.2,60.7,166.4,61.8,164.3,61.8z"/>
					<path class="st0" d="M182.6,51.8c-1.3,0-2.5,0.6-3.1,1.7h0c-0.5-1.1-1.5-1.7-3-1.7c-1.1,0-2.2,0.5-2.8,1.3h-0.1l-0.3-1.2
						l-1.3,0.1V63h1.7v-8.3c0.4-0.7,1.4-1.2,2.3-1.2c1.2,0,2.2,0.6,2.2,2.1V63h1.7v-7.5c0-1.4,1-2.1,2.2-2.1c1.4,0,2.3,0.7,2.3,2.2
						V63h1.7v-7.3C186.2,53.1,184.7,51.8,182.6,51.8z"/>
					<path class="st0" d="M200.3,51.8c-1.3,0-2.5,0.6-3.1,1.7h0c-0.5-1.1-1.5-1.7-3-1.7c-1.1,0-2.2,0.5-2.8,1.3h-0.1L191,52
						l-1.3,0.1V63h1.7v-8.3c0.4-0.7,1.4-1.2,2.3-1.2c1.2,0,2.2,0.6,2.2,2.1V63h1.7v-7.5c0-1.4,1-2.1,2.2-2.1c1.4,0,2.3,0.7,2.3,2.2
						V63h1.7v-7.3C203.8,53.1,202.4,51.8,200.3,51.8z"/>
					<path class="st0" d="M214,59.4c0,1.5-0.9,2.2-2.5,2.2c-1.7,0-2.5-0.8-2.5-2.2V52h-1.7v7.4c0,2.4,1.4,3.8,4.3,3.8
						c2.9,0,4.3-1.4,4.3-3.8V52H214V59.4z"/>
					<path class="st0" d="M224,51.8c-1.2,0-2.4,0.5-3.2,1.3h-0.1l-0.3-1.2l-1.3,0.1V63h1.7v-8.3c0.5-0.8,1.6-1.2,2.6-1.2
						c1.6,0,2.5,0.7,2.5,2.3V63h1.7v-7.3C227.7,53.1,226.3,51.8,224,51.8z"/>
					<path class="st0" d="M239.5,56.9c0-3.5-1.7-5.1-4.3-5.1c-3,0-4.5,1.9-4.5,5.4c0,4.1,1.5,6,5.1,6c1.3,0,2.5-0.3,3.4-0.8
						l-0.2-1.5c-0.9,0.5-1.9,0.7-3,0.7c-2.4,0-3.4-1-3.5-3.9h7C239.5,57.5,239.5,57.2,239.5,56.9z M232.4,56.6
						c0.1-2.2,0.9-3.2,2.8-3.2c1.6,0,2.7,0.9,2.7,3.2H232.4z"/>
					<polygon class="st0" points="157.8,52 155.8,52 152.5,56.4 150.8,56.4 150.8,47.3 149.1,47.3 149.1,63 150.8,63 150.8,57.8 
						152.5,57.8 155.9,63 157.9,63 154,57 					"/>
					<polygon class="st0" points="125.7,52 123.7,52 120.4,56.4 118.7,56.4 118.7,47.3 117,47.3 117,63 118.7,63 118.7,57.8 
						120.4,57.8 123.8,63 125.9,63 121.9,57 					"/>
					<rect x="111.5" y="47.3" class="st0" width="1.7" height="15.7"/>
				</g>
				<path class="st0" d="M107.1,52l-3.3,8.7l-3.2-8.7h-1.9l4.2,10.7c0,0-0.4,1.7-2,1.7h-1.3v1.5h1.6c1.6,0,2.7-1.1,3.4-2.8
					S109,52,109,52H107.1z"/>
				<path class="st0" d="M136.3,56.9c0-3.5-1.7-5.1-4.3-5.1c-3,0-4.5,1.9-4.5,5.4c0,4.1,1.5,6,5.1,6c1.3,0,2.5-0.3,3.4-0.8l-0.2-1.5
					c-0.9,0.5-1.9,0.7-3,0.7c-2.4,0-3.4-1-3.5-3.9h7C136.3,57.5,136.3,57.2,136.3,56.9z M129.2,56.6c0.1-2.2,0.9-3.2,2.8-3.2
					c1.6,0,2.7,0.9,2.7,3.2H129.2z"/>
			</g>
			<g>
				<g>
					<g>
						<g>
							<g>
								<g>
									<polygon class="st0" points="85.5,16.7 85.5,20.8 91.6,20.8 91.6,39 96.2,39 96.2,20.8 102.2,20.8 102.2,16.7 									"/>
								</g>
								<polygon class="st0" points="177.1,30.8 176.4,32.5 170.2,16.9 170.1,16.7 165.2,16.7 165.2,39 169.3,39 169.3,26.2 
									169.2,25 174.8,39 177.9,39 183.1,26.1 183.5,24.9 183.5,26.2 183.5,39 187.6,39 187.6,16.7 182.8,16.7 								"/>
								<path class="st0" d="M199.9,16.7L192,39h4.8l1.5-4.7h8.4l1.4,4.7h5l-8-22.3H199.9z M202.5,20.6l0.4,1.6l2.5,8.2h-6l2.6-8.2
									L202.5,20.6z"/>
								<path class="st0" d="M233.3,23.5c0-4.6-2.6-6.8-7.8-6.8h-8V39h4.5v-8.6h3.3l4.3,8.6h5.3l-5.4-9.5
									C231.9,28.8,233.3,26.7,233.3,23.5z M228.6,23.6c0,2.4-0.8,3.2-3.3,3.2H222v-6.2h3.5C227.8,20.6,228.6,21.4,228.6,23.6z"/>
								<polygon class="st0" points="250.1,27.3 257.3,16.7 252,16.7 246.1,25.6 243.7,25.6 243.7,16.7 239.2,16.7 239.2,39 
									243.7,39 243.7,29.4 246.1,29.4 252.1,38.9 252.2,39 257.6,39 								"/>
							</g>
							<polygon class="st0" points="121.1,34.9 111.4,34.9 111.4,29.4 119.9,29.4 119.9,25.6 111.4,25.6 111.4,20.8 120.7,20.8 
								120.7,16.7 106.9,16.7 106.9,39 121.1,39 							"/>
							<polygon class="st0" points="131.1,34.9 131.1,16.7 126.6,16.7 126.6,39 140.9,39 140.9,34.9 							"/>
							<polygon class="st0" points="159.6,34.9 149.9,34.9 149.9,29.4 158.4,29.4 158.4,25.6 149.9,25.6 149.9,20.8 159.2,20.8 
								159.2,16.7 145.4,16.7 145.4,39 159.6,39 							"/>
						</g>
					</g>
				</g>
			</g>
		</g>
	</g>
	<g>
		<path class="st0" d="M6,3.9c0,0,0,25.7,5.1,41.3C15.6,59.3,25.8,71.1,38,78.7c12.2-7.6,22.1-19.4,26.6-33.5
			c5-15.6,5.1-41.3,5.1-41.3H6z M59.5,31.6c-3.2,2.2-8.3,7.2-8.3,7.2s0.4,0.7,0.6,1.2c0.1,0.1,0,0.3-0.1,0.4l-6.3,5.4
			c-0.1,0.1-0.3,0.1-0.4,0c-0.3-0.2-1.1-0.9-1.1-0.9s-0.8,0.7-1,0.9c-2.7,2.7-2.1,7.2-2.3,10.5l-0.4,19.9c-0.7,0.5-1.4,1-2.1,1.4
			c-0.9-0.6-1.8-1.2-2.6-1.8c-0.1-2.8-0.3-7.5-0.3-7.5s-0.9-17.9-0.8-20.8c0.1-2.9,1.6-6.5,3.8-8.9c0,0-2-3.8-6.9-4.3
			c-5.4-0.6-10,3.7-12.7,5.8c-0.4,0.3-0.9,0.8-1,0.9c-0.3,0.3-0.4,0-0.4-0.4c0.2-3.5,1.4-7.7,3-11.4C25.5,16.7,37.8,7.6,51.7,6.8
			c0.4,0,0.4,0.3,0.2,0.5c-1.6,1-3,2-4.3,3.6C43.1,16,41.6,24,44.7,30.3c0.6,1.1,1.3,2.1,2.5,3.1c0,0,3.1-1,6.8-3.4
			c0.5-0.3,0.7,0.3,1.1,0.7c0.9,0.9,2.7,1.2,4.2,0.5C59.6,31,59.8,31.4,59.5,31.6z"/>
		<g>
			<g>
				<path class="st0" d="M52.4,32.8c0.5-0.1,1-0.1,1.2,0.1c0.3,0.3-0.4,1.3-0.8,1.9c-0.9,1.5-0.9,1.6-1.8,2.9c0,0-0.1-0.6,0.1-1.3
					c0.2-0.7,0.6-1.3,0.8-1.8c0.3-0.5,0.7-0.9,0.6-1.1c-0.1-0.2-1,0.1-1.4,0.1c-0.4,0.1-1.5,0.4-2.5-0.1
					C48.7,33.7,51.3,33,52.4,32.8z"/>
				<path class="st0" d="M37.8,45.2c0.4-0.1,2.1-1.3,3.5-1.1c1,0.1,1.6,0.5,1.6,0.5c-1,0.1-1.9-0.1-3.6,0.8
					c-0.8,0.4-1.9,1.3-2.5,0.7c-0.4-0.4-0.4-1.2,0-3c0.4-1.9,1.2-3.1,1.2-3.1s0,0.7-0.6,4.4C37.4,45,37.4,45.4,37.8,45.2z"/>
			</g>
			<path class="st0" d="M35.8,66.7c0,0-0.2,1.3,0.9,2.6c1.1,1.3,2.6,2.9,2.6,2.9s0.3-1.1-0.8-2.4C37.4,68.5,35.8,66.7,35.8,66.7z"/>
			<path class="st0" d="M35.4,57.1c0,0-0.1,1.4,1.1,2.7c1.2,1.3,3,3,3,3s0.2-1.1-1-2.5C37.3,59,35.4,57.1,35.4,57.1z"/>
			<path class="st0" d="M35.2,47.5c0,0-0.2,1.3,1,2.8c1.2,1.4,3.5,4.2,3.5,4.2s0.2-1.4-1-2.9C37.5,50.1,35.2,47.5,35.2,47.5z"/>
		</g>
	</g>
</g>
</svg>
