<?xml version="1.0" encoding="utf-8"?>
<!-- Generator: Adobe Illustrator 19.1.0, SVG Export Plug-In . SVG Version: 6.00 Build 0)  -->
<svg version="1.1" id="Layer_1" xmlns="http://www.w3.org/2000/svg" xmlns:xlink="http://www.w3.org/1999/xlink" x="0px" y="0px"
	 viewBox="-141.2 -224.1 346.3 512" style="enable-background:new -141.2 -224.1 346.3 512;" xml:space="preserve">
<style type="text/css">
	.st0{fill:#6AC4AE;}
</style>
<g>
	<g>
		<rect x="-141.2" y="256.6" width="179.1" height="29.9"/>
	</g>
	<g>
		<path class="st0" d="M39.5,22.2c44.8,0,80.6-35.8,80.6-80.6S84.2-139,39.5-139s-80.6,35.8-80.6,80.6S-5.3,22.2,39.5,22.2
			 M39.5-224.1c91.1,0,165.7,74.6,165.7,165.7c0,29.9-6,65.7-22.4,100C133.5,153.6,38,288,38,288s-94-134.3-144.8-246.3
			c-14.9-34.3-22.4-70.2-22.4-100C-127.7-149.4-53.1-224.1,39.5-224.1"/>
	</g>
</g>
</svg>
