<?xml version="1.0" encoding="utf-8"?>
<!-- Generator: Adobe Illustrator 19.1.0, SVG Export Plug-In . SVG Version: 6.00 Build 0)  -->
<svg version="1.1" id="Layer_1" xmlns="http://www.w3.org/2000/svg" xmlns:xlink="http://www.w3.org/1999/xlink" x="0px" y="0px"
	 viewBox="0 0 64 64" style="enable-background:new 0 0 64 64;" xml:space="preserve">
<style type="text/css">
	.st0{fill:#8CBFAA;}
	.st1{fill:#222221;}
	.st2{fill:#89C2AC;}
</style>
<g>
	<g>
		<g>
			<g>
				<path class="st0" d="M30.61,50.9c-8.25,0-14.97-6.71-14.97-14.97s6.71-14.97,14.97-14.97s14.97,6.71,14.97,14.97
					S38.86,50.9,30.61,50.9z M30.61,24.87c-6.1,0-11.06,4.96-11.06,11.06S24.51,47,30.61,47s11.06-4.96,11.06-11.06
					S36.71,24.87,30.61,24.87z"/>
			</g>
		</g>
	</g>
	<g>
		<rect x="24.27" y="32.65" transform="matrix(0.6483 0.7614 -0.7614 0.6483 35.4976 -9.537)" class="st1" width="7.6" height="2"/>
	</g>
</g>
<g>
	<rect x="25.4" y="13.45" class="st2" width="10.41" height="4.67"/>
</g>
<g>
	
		<rect x="41.67" y="19.5" transform="matrix(0.7071 0.7071 -0.7071 0.7071 28.5928 -25.3592)" class="st2" width="6.48" height="4.67"/>
</g>
</svg>
