<?xml version="1.0" encoding="utf-8"?>
<!-- Generator: Adobe Illustrator 19.1.0, SVG Export Plug-In . SVG Version: 6.00 Build 0)  -->
<svg version="1.1" id="Layer_1" xmlns="http://www.w3.org/2000/svg" xmlns:xlink="http://www.w3.org/1999/xlink" x="0px" y="0px"
	 viewBox="0 0 64 64" style="enable-background:new 0 0 64 64;" xml:space="preserve">
<style type="text/css">
	.st0{fill:#8CBFAA;}
	.st1{fill:#222221;}
	.st2{fill:#89C2AC;}
</style>
<g>
	<g>
		<rect x="20.42" y="47.05" class="st1" width="12.04" height="2"/>
	</g>
	<g>
		<path class="st0" d="M32.46,31.32c2.97,0,5.38-2.41,5.38-5.38c0-2.97-2.41-5.38-5.38-5.38s-5.38,2.41-5.38,5.38
			C27.08,28.91,29.49,31.32,32.46,31.32 M32.46,14.83c6.14,0,11.12,4.98,11.12,11.12c0,2.04-0.44,4.41-1.46,6.71
			c-3.34,7.51-9.66,16.52-9.66,16.52s-6.32-9.01-9.66-16.52c-1.02-2.3-1.46-4.67-1.46-6.71C21.34,19.81,26.32,14.83,32.46,14.83"/>
	</g>
</g>
</svg>
