<?xml version="1.0" encoding="utf-8"?>
<!-- Generator: Adobe Illustrator 19.1.0, SVG Export Plug-In . SVG Version: 6.00 Build 0)  -->
<svg version="1.1" id="Layer_1" xmlns="http://www.w3.org/2000/svg" xmlns:xlink="http://www.w3.org/1999/xlink" x="0px" y="0px"
	 viewBox="0 0 64 64" style="enable-background:new 0 0 64 64;" xml:space="preserve">
<style type="text/css">
	.st0{fill:#8CBFAA;}
	.st1{fill:#222221;}
	.st2{fill:#89C2AC;}
</style>
<g>
	<g>
		<polygon class="st1" points="37.42,44.5 17.58,44.5 17.58,43.58 37.04,43.58 47.45,33.17 48.1,33.82 		"/>
	</g>
	<g>
		<path class="st0" d="M17.58,36.35c1.54,0,2.75-1.41,2.41-3.01c-0.2-0.93-0.95-1.69-1.89-1.88c-1.59-0.33-3,0.88-3,2.42
			C15.11,35.24,16.22,36.35,17.58,36.35 M17.58,28.76c2.82,0,5.11,2.29,5.11,5.11c0,0.94-0.2,2.03-0.67,3.08
			c-1.54,3.45-4.44,7.6-4.44,7.6s-2.91-4.14-4.44-7.6c-0.47-1.06-0.67-2.15-0.67-3.08C12.47,31.05,14.76,28.76,17.58,28.76"/>
	</g>
	<g>
		<path class="st0" d="M47.78,26.13c1.54,0,2.75-1.41,2.41-3.01c-0.2-0.93-0.95-1.69-1.89-1.88c-1.59-0.33-3,0.88-3,2.42
			C45.3,25.02,46.41,26.13,47.78,26.13 M47.78,18.55c2.82,0,5.11,2.29,5.11,5.11c0,0.94-0.2,2.03-0.67,3.08
			c-1.54,3.45-4.44,7.6-4.44,7.6s-2.91-4.14-4.44-7.6c-0.47-1.06-0.67-2.15-0.67-3.08C42.66,20.84,44.95,18.55,47.78,18.55"/>
	</g>
</g>
</svg>
