<?xml version="1.0" encoding="utf-8"?>
<!-- Generator: Adobe Illustrator 19.1.0, SVG Export Plug-In . SVG Version: 6.00 Build 0)  -->
<svg version="1.1" id="Layer_1" xmlns="http://www.w3.org/2000/svg" xmlns:xlink="http://www.w3.org/1999/xlink" x="0px" y="0px"
	 viewBox="-142.1 -224.1 347.8 512" style="enable-background:new -142.1 -224.1 347.8 512;" xml:space="preserve">
<style type="text/css">
	.st0{fill:#6AC4AE;}
</style>
<g>
	<g>
		<rect x="26.6" y="256.6" width="179.1" height="29.9"/>
	</g>
	<g>
		<path class="st0" d="M26.6,22.2c44.8,0,80.6-35.8,80.6-80.6S71.4-139,26.6-139S-54-103.1-54-58.4C-52.5-13.6-16.7,22.2,26.6,22.2
			 M26.6-224.1c91.1,0,165.7,74.6,165.7,165.7c0,29.9-6,65.7-22.4,100C120.7,153.6,25.1,288,25.1,288s-94-134.3-144.8-246.3
			c-14.9-34.3-22.4-70.2-22.4-100C-139.1-149.4-64.4-224.1,26.6-224.1"/>
	</g>
</g>
</svg>
