<?xml version="1.0" encoding="utf-8"?>
<!-- Generator: Adobe Illustrator 19.1.0, SVG Export Plug-In . SVG Version: 6.00 Build 0)  -->
<svg version="1.1" id="Layer_1" xmlns="http://www.w3.org/2000/svg" xmlns:xlink="http://www.w3.org/1999/xlink" x="0px" y="0px"
	 viewBox="-2 17 57.9 32" style="enable-background:new -2 17 57.9 32;" xml:space="preserve">
<style type="text/css">
	.st0{fill:#FFFFFF;}
	.st1{fill:#71C1AC;}
</style>
<rect x="11.2" y="27.5" class="st0" width="22.4" height="3.6"/>
<g>
	<g>
		<g>
			<path class="st1" d="M-2,48c1.5,0.5,3.2,1,6.1,1c6.7,0,6.7-2.5,13.4-2.5S24.2,49,31,49c6.7,0,6.7-2.5,13.4-2.5
				c2.5,0,4.1,0.4,5.5,0.8l6-11.2H-2V48z"/>
		</g>
	</g>
	<g>
		<rect x="19" y="17" class="st1" width="5.1" height="5.1"/>
	</g>
	<path class="st1" d="M32.4,24.5H9.2v9.3h32L32.4,24.5z M17.8,30.1h-5.4v-2.1h5.4V30.1z M25.1,30.1h-5.4v-2.1h5.4V30.1z M27.1,30.1
		v-2.1h5.4v2.2L27.1,30.1L27.1,30.1z"/>
</g>
</svg>
