<?xml version="1.0" encoding="utf-8"?>
<!-- Generator: Adobe Illustrator 19.1.0, SVG Export Plug-In . SVG Version: 6.00 Build 0)  -->
<svg version="1.1" id="Layer_1" xmlns="http://www.w3.org/2000/svg" xmlns:xlink="http://www.w3.org/1999/xlink" x="0px" y="0px"
	 width="63.1px" height="32.05px" viewBox="0 0 63.1 32.05" style="enable-background:new 0 0 63.1 32.05;" xml:space="preserve">
<style type="text/css">
	.st0{fill:#FFFFFF;}
	.st1{fill:#71C1AC;}
</style>
<g>
	<g>
		<rect x="1.17" y="2.8" class="st0" width="57.08" height="15.42"/>
		<rect x="51.58" y="7.71" class="st0" width="8.58" height="10"/>
	</g>
</g>
<g>
	<ellipse class="st1" cx="12.09" cy="28.11" rx="3.93" ry="3.94"/>
	<ellipse class="st1" cx="46.43" cy="28.11" rx="3.93" ry="3.94"/>
	<path class="st1" d="M56.69,0H0v28.11h5.24c0-3.8,3.07-6.88,6.86-6.88c3.79,0,6.86,3.08,6.86,6.88h20.62c0-3.8,3.07-6.88,6.86-6.88
		c3.79,0,6.86,3.08,6.86,6.88h9.82V14.29L56.69,0z M13.71,13.39H3.47V4.53h10.23V13.39z M28.6,13.39H18.37V4.53H28.6V13.39z
		 M43.5,13.39H33.27V4.53H43.5V13.39z M48.17,13.39V4.53h6.08l3.81,8.85H48.17z"/>
</g>
</svg>
