<?xml version="1.0" encoding="utf-8"?>
<!-- Generator: Adobe Illustrator 21.0.0, SVG Export Plug-In . SVG Version: 6.00 Build 0)  -->
<svg version="1.1" id="Layer_1" xmlns="http://www.w3.org/2000/svg" xmlns:xlink="http://www.w3.org/1999/xlink" x="0px" y="0px"
	 viewBox="0 0 31.9 26.3" style="enable-background:new 0 0 31.9 26.3;" xml:space="preserve">
<title>nettbutikk-alt</title>
<g id="Layer_2">
	<g id="Layer_1-2">
		<polygon points="27.2,17.7 8.6,17.7 3.2,2.1 0,2.1 0,0 4.8,0 10.1,15.6 25.7,15.6 28.8,6.8 12.4,6.8 12.4,4.7 31.9,4.7 		"/>
		<path d="M12.6,26.3c-1.9,0-3.5-1.6-3.5-3.5s1.6-3.5,3.5-3.5c1.9,0,3.5,1.6,3.5,3.5C16.1,24.7,14.5,26.3,12.6,26.3z M12.6,21.4
			c-0.7,0-1.3,0.6-1.3,1.3s0.6,1.3,1.3,1.3s1.3-0.6,1.3-1.3C13.9,22,13.3,21.4,12.6,21.4L12.6,21.4z"/>
		<path d="M24.1,26.3c-1.9,0-3.5-1.6-3.5-3.5s1.6-3.5,3.5-3.5c1.9,0,3.5,1.6,3.5,3.5C27.5,24.7,26,26.3,24.1,26.3z M24.1,21.4
			c-0.7,0-1.3,0.6-1.3,1.3s0.6,1.3,1.3,1.3s1.3-0.6,1.3-1.3C25.4,22,24.8,21.4,24.1,21.4L24.1,21.4z"/>
		<rect x="12.4" y="10.1" width="15.8" height="2.1"/>
	</g>
</g>
</svg>
