<svg xmlns="http://www.w3.org/2000/svg" viewBox="0 0 31.89 26.26"><title>nettbutikk-enkel</title><g id="Layer_2" data-name="Layer 2"><g id="Layer_1-2" data-name="Layer 1"><g id="Layer_2-2" data-name="Layer 2"><g id="Layer_1-2-2" data-name="Layer 1-2"><polygon points="27.21 17.7 8.61 17.7 3.24 2.14 0 2.14 0 0 4.77 0 10.14 15.56 25.71 15.56 28.84 6.84 12.43 6.84 12.43 4.7 31.89 4.7 27.21 17.7"/><path d="M12.6,26.26a3.48,3.48,0,1,1,3.48-3.49A3.48,3.48,0,0,1,12.6,26.26Zm0-4.83a1.34,1.34,0,1,0,1.34,1.34,1.34,1.34,0,0,0-1.34-1.34Z"/><path d="M24.06,26.26a3.48,3.48,0,1,1,3.48-3.49A3.48,3.48,0,0,1,24.06,26.26Zm0-4.83a1.34,1.34,0,1,0,1.34,1.34,1.34,1.34,0,0,0-1.34-1.34Z"/><rect x="12.38" y="10.1" width="15.75" height="2.14"/></g></g></g></g></svg>