<svg xmlns="http://www.w3.org/2000/svg" viewBox="0 0 58.17 26.26"><defs><style>.cls-1{fill:#6ac4ae;}</style></defs><title>nettbutikk</title><g id="Layer_2" data-name="Layer 2"><g id="Layer_1-2" data-name="Layer 1"><polygon class="cls-1" points="22.25 13.13 11.01 1.89 11.01 8.85 0 8.85 0 17.41 11.01 17.41 11.01 24.37 22.25 13.13"/><polygon points="53.49 17.7 34.89 17.7 29.52 2.14 26.28 2.14 26.28 0 31.05 0 36.42 15.56 51.99 15.56 55.12 6.84 38.71 6.84 38.71 4.7 58.17 4.7 53.49 17.7"/><path d="M38.88,26.26a3.48,3.48,0,1,1,3.48-3.49A3.49,3.49,0,0,1,38.88,26.26Zm0-4.83a1.34,1.34,0,1,0,1.34,1.34A1.34,1.34,0,0,0,38.88,21.44Z"/><path d="M50.34,26.26a3.48,3.48,0,1,1,3.48-3.49A3.49,3.49,0,0,1,50.34,26.26Zm0-4.83a1.34,1.34,0,1,0,1.34,1.34A1.34,1.34,0,0,0,50.34,21.44Z"/><rect x="38.66" y="10.1" width="15.75" height="2.14"/></g></g></svg>