<?xml version="1.0" encoding="utf-8"?>
<!-- Generator: Adobe Illustrator 19.1.0, SVG Export Plug-In . SVG Version: 6.00 Build 0)  -->
<svg version="1.1" id="Layer_1" xmlns="http://www.w3.org/2000/svg" xmlns:xlink="http://www.w3.org/1999/xlink" x="0px" y="0px"
	 viewBox="0 0 256 256" style="enable-background:new 0 0 256 256;" xml:space="preserve">
<style type="text/css">
	.st0{enable-background:new    ;}
	.st1{fill:#5CAA97;}
	.st2{clip-path:url(#SVGID_2_);enable-background:new    ;}
	.st3{fill:#65BBA6;}
	.st4{fill:#65BAA5;}
	.st5{fill:#64B9A5;}
	.st6{fill:#64B9A4;}
	.st7{fill:#64B8A4;}
	.st8{fill:#63B8A3;}
	.st9{fill:#63B7A3;}
	.st10{fill:#63B7A2;}
	.st11{fill:#63B6A2;}
	.st12{fill:#62B6A1;}
	.st13{fill:#62B5A1;}
	.st14{fill:#62B5A0;}
	.st15{fill:#61B4A0;}
	.st16{fill:#61B49F;}
	.st17{fill:#61B39F;}
	.st18{fill:#60B29E;}
	.st19{fill:#60B19D;}
	.st20{fill:#5FB19D;}
	.st21{fill:#5FB09C;}
	.st22{fill:#5FAF9B;}
	.st23{fill:#5EAE9B;}
	.st24{fill:#5EAE9A;}
	.st25{fill:#5EAD9A;}
	.st26{fill:#5DAC99;}
	.st27{fill:#5DAB98;}
	.st28{fill:#5CAB98;}
	.st29{fill:#5CA996;}
	.st30{fill:#5BA996;}
	.st31{fill:#5BA895;}
	.st32{fill:#5AA794;}
	.st33{fill:#5AA694;}
	.st34{fill:#5AA693;}
	.st35{fill:#59A593;}
	.st36{clip-path:url(#SVGID_4_);enable-background:new    ;}
	.st37{clip-path:url(#SVGID_6_);enable-background:new    ;}
	.st38{fill:#67BFA9;}
	.st39{fill:#67BEA9;}
	.st40{fill:#66BDA8;}
	.st41{fill:#66BCA7;}
	.st42{clip-path:url(#SVGID_8_);enable-background:new    ;}
	.st43{fill:#67BFAA;}
	.st44{clip-path:url(#SVGID_10_);enable-background:new    ;}
	.st45{clip-path:url(#SVGID_12_);enable-background:new    ;}
	.st46{fill:#68C0AA;}
	.st47{clip-path:url(#SVGID_14_);enable-background:new    ;}
	.st48{fill:#68C0AB;}
	.st49{clip-path:url(#SVGID_16_);enable-background:new    ;}
	.st50{fill:#68C1AB;}
	.st51{fill:#69C2AC;}
	.st52{fill:#69C3AD;}
	.st53{fill:#6AC3AD;}
	.st54{fill:#6AC4AE;}
	.st55{fill:#FFFFFF;}
</style>
<g>
	<g>
		<g class="st0">
			<g>
				<rect x="127.99" y="-121.21" class="st1" width="0" height="242.41"/>
			</g>
			<g class="st0">
				<defs>
					<path id="SVGID_1_" class="st0" d="M249.2,255c0,0.55,0,1,0,1H6.79c0,0,0-0.45,0-1C6.79,255,249.2,255,249.2,255z"/>
				</defs>
				<clipPath id="SVGID_2_">
					<use xlink:href="#SVGID_1_"  style="overflow:visible;"/>
				</clipPath>
				<g class="st2">
					<path class="st3" d="M6.79,255H249.2c0,0.01,0,0.02,0,0.03H6.79C6.79,255.01,6.79,255.01,6.79,255"/>
					<path class="st4" d="M6.79,255.02H249.2c0,0.01,0,0.02,0,0.04H6.79C6.79,255.05,6.79,255.04,6.79,255.02"/>
					<path class="st4" d="M6.79,255.06H249.2c0,0.01,0,0.02,0,0.03H6.79C6.79,255.08,6.79,255.07,6.79,255.06"/>
					<path class="st5" d="M6.79,255.09H249.2c0,0.01,0,0.02,0,0.03H6.79C6.79,255.12,6.79,255.1,6.79,255.09"/>
					<path class="st6" d="M6.79,255.13H249.2c0,0.01,0,0.02,0,0.03H6.79C6.79,255.15,6.79,255.14,6.79,255.13"/>
					<path class="st7" d="M6.79,255.16H249.2c0,0.01,0,0.02,0,0.03H6.79C6.79,255.18,6.79,255.17,6.79,255.16"/>
					<path class="st8" d="M6.79,255.19H249.2c0,0.01,0,0.02,0,0.03H6.79C6.79,255.21,6.79,255.2,6.79,255.19"/>
					<path class="st9" d="M6.79,255.22H249.2c0,0.01,0,0.02,0,0.03H6.79C6.79,255.24,6.79,255.23,6.79,255.22"/>
					<path class="st10" d="M6.79,255.25H249.2c0,0.01,0,0.02,0,0.03H6.79C6.79,255.26,6.79,255.26,6.79,255.25"/>
					<path class="st11" d="M6.79,255.27H249.2c0,0.01,0,0.02,0,0.03H6.79C6.79,255.29,6.79,255.28,6.79,255.27"/>
					<path class="st12" d="M6.79,255.3H249.2c0,0.01,0,0.02,0,0.03H6.79C6.79,255.32,6.79,255.31,6.79,255.3"/>
					<path class="st13" d="M6.79,255.33H249.2c0,0.01,0,0.02,0,0.03H6.79C6.79,255.34,6.79,255.34,6.79,255.33"/>
					<path class="st14" d="M6.79,255.35H249.2c0,0.01,0,0.02,0,0.02H6.79C6.79,255.37,6.79,255.36,6.79,255.35"/>
					<path class="st15" d="M6.79,255.38H249.2c0,0.01,0,0.02,0,0.02H6.79C6.79,255.39,6.79,255.39,6.79,255.38"/>
					<path class="st16" d="M6.79,255.4H249.2c0,0.01,0,0.02,0,0.02H6.79C6.79,255.42,6.79,255.41,6.79,255.4"/>
					<path class="st17" d="M6.79,255.42H249.2c0,0.01,0,0.02,0,0.02H6.79C6.79,255.44,6.79,255.43,6.79,255.42"/>
					<path class="st17" d="M6.79,255.45H249.2c0,0.01,0,0.01,0,0.02H6.79C6.79,255.46,6.79,255.46,6.79,255.45"/>
					<path class="st18" d="M6.79,255.47H249.2c0,0.01,0,0.01,0,0.02H6.79C6.79,255.48,6.79,255.48,6.79,255.47"/>
					<path class="st18" d="M6.79,255.49H249.2c0,0.01,0,0.01,0,0.02H6.79C6.79,255.51,6.79,255.5,6.79,255.49"/>
					<path class="st19" d="M6.79,255.51H249.2c0,0.01,0,0.01,0,0.02H6.79C6.79,255.53,6.79,255.52,6.79,255.51"/>
					<path class="st20" d="M6.79,255.53H249.2c0,0.01,0,0.01,0,0.02H6.79C6.79,255.55,6.79,255.54,6.79,255.53"/>
					<path class="st21" d="M6.79,255.55H249.2c0,0.01,0,0.01,0,0.02H6.79C6.79,255.57,6.79,255.56,6.79,255.55"/>
					<path class="st21" d="M6.79,255.57H249.2c0,0.01,0,0.01,0,0.02H6.79C6.79,255.59,6.79,255.58,6.79,255.57"/>
					<path class="st22" d="M6.79,255.59H249.2c0,0.01,0,0.01,0,0.02H6.79C6.79,255.61,6.79,255.6,6.79,255.59"/>
					<path class="st23" d="M6.79,255.61H249.2c0,0.01,0,0.01,0,0.02H6.79C6.79,255.62,6.79,255.62,6.79,255.61"/>
					<path class="st24" d="M6.79,255.63H249.2c0,0.01,0,0.01,0,0.02H6.79C6.79,255.64,6.79,255.64,6.79,255.63"/>
					<path class="st25" d="M6.79,255.65H249.2c0,0.01,0,0.01,0,0.02H6.79C6.79,255.66,6.79,255.65,6.79,255.65"/>
					<path class="st25" d="M6.79,255.67H249.2c0,0.01,0,0.01,0,0.02H6.79C6.79,255.68,6.79,255.67,6.79,255.67"/>
					<path class="st26" d="M6.79,255.68H249.2c0,0.01,0,0.01,0,0.02H6.79C6.79,255.69,6.79,255.69,6.79,255.68"/>
					<path class="st26" d="M6.79,255.7H249.2c0,0.01,0,0.01,0,0.02H6.79C6.79,255.71,6.79,255.71,6.79,255.7"/>
					<path class="st27" d="M6.79,255.72H249.2c0,0.01,0,0.01,0,0.02H6.79C6.79,255.73,6.79,255.72,6.79,255.72"/>
					<path class="st28" d="M6.79,255.73H249.2c0,0.01,0,0.01,0,0.02H6.79C6.79,255.74,6.79,255.74,6.79,255.73"/>
					<path class="st1" d="M6.79,255.75H249.2c0,0.01,0,0.01,0,0.02H6.79C6.79,255.76,6.79,255.75,6.79,255.75"/>
					<path class="st1" d="M6.79,255.76H249.2c0,0.01,0,0.01,0,0.02H6.79C6.79,255.78,6.79,255.77,6.79,255.76"/>
					<path class="st29" d="M6.79,255.78H249.2c0,0.01,0,0.01,0,0.02H6.79C6.79,255.79,6.79,255.79,6.79,255.78"/>
					<path class="st30" d="M6.79,255.8H249.2c0,0.01,0,0.01,0,0.02H6.79C6.79,255.81,6.79,255.8,6.79,255.8"/>
					<path class="st31" d="M6.79,255.81H249.2c0,0.01,0,0.01,0,0.02H6.79C6.79,255.82,6.79,255.82,6.79,255.81"/>
					<path class="st31" d="M6.79,255.83H249.2c0,0.01,0,0.01,0,0.02H6.79C6.79,255.84,6.79,255.83,6.79,255.83"/>
					<path class="st32" d="M6.79,255.84H249.2c0,0.01,0,0.01,0,0.02H6.79C6.79,255.85,6.79,255.85,6.79,255.84"/>
					<path class="st32" d="M6.79,255.86H249.2c0,0.01,0,0.01,0,0.02H6.79C6.79,255.87,6.79,255.86,6.79,255.86"/>
					<path class="st33" d="M6.79,255.88H249.2c0,0.01,0,0.01,0,0.02H6.79C6.79,255.89,6.79,255.88,6.79,255.88"/>
					<path class="st34" d="M6.79,255.89H249.2c0,0.01,0,0.01,0,0.02H6.79C6.79,255.91,6.79,255.9,6.79,255.89"/>
					<path class="st35" d="M6.79,255.91H249.2c0,0.05,0,0.08,0,0.08H6.79C6.79,256,6.79,255.97,6.79,255.91"/>
				</g>
			</g>
			<g class="st0">
				<defs>
					<path id="SVGID_3_" class="st0" d="M6.79,255c0,0.55,0,1,0,1C3.03,256,0,252.95,0,249.2c0,0,0.45,0,1,0
						C1,252.4,3.59,255,6.79,255z"/>
				</defs>
				<clipPath id="SVGID_4_">
					<use xlink:href="#SVGID_3_"  style="overflow:visible;"/>
				</clipPath>
				<g class="st36">
					<path class="st4" d="M6.79,255c0,0.55,0,1,0,1C3.03,256,0,252.95,0,249.2c0,0,0.45,0,1,0C1,252.4,3.59,255,6.79,255"/>
					<path class="st4" d="M0.97,249.2c0.15,3.34,2.48,5.68,5.82,5.82c0,0.54,0,0.97,0,0.97C3.03,256,0,252.95,0,249.2
						C0,249.2,0.43,249.2,0.97,249.2"/>
					<path class="st4" d="M0.93,249.2c0.1,0.09,0.02,0.32,0.02,0.46c0.07,1.33,1.28,5.18,5.83,5.4c0,0.52,0,0.94,0,0.94
						C3.03,256,0,252.95,0,249.2C0,249.2,0.41,249.2,0.93,249.2"/>
					<path class="st5" d="M0.9,249.2c0.19,3.4,2.5,5.72,5.89,5.89c0,0.51,0,0.9,0,0.9C3.03,256,0,252.95,0,249.2
						C0,249.2,0.39,249.2,0.9,249.2"/>
					<path class="st6" d="M0.86,249.2c0.1,0.1,0.02,0.32,0.03,0.46c0.08,1.43,1.31,5.21,5.9,5.46c0,0.49,0,0.87,0,0.87
						C3.03,256,0,252.95,0,249.2C0,249.2,0.37,249.2,0.86,249.2"/>
					<path class="st7" d="M0.83,249.2c0.1,0.1,0.02,0.33,0.03,0.47c0.12,2.01,1.84,5.28,5.93,5.49c0,0.48,0,0.84,0,0.84
						C3.03,256,0,252.95,0,249.2C0,249.2,0.36,249.2,0.83,249.2"/>
					<path class="st8" d="M0.79,249.2L0.79,249.2c0.22,3.43,2.57,5.78,5.99,5.99c0,0.46,0,0.81,0,0.81C3.03,256,0,252.95,0,249.2
						C0,249.2,0.34,249.2,0.79,249.2"/>
					<path class="st9" d="M0.76,249.2c0.05,0.05,0.01,0.18,0.01,0.25c0.11,2.17,1.79,5.5,6.01,5.77c0,0.45,0,0.78,0,0.78
						C3.03,256,0,252.95,0,249.2C0,249.2,0.33,249.2,0.76,249.2"/>
					<path class="st10" d="M0.73,249.2c0.1,0.1,0.02,0.33,0.03,0.47c0.1,1.45,1.37,5.28,6.02,5.57c0,0.43,0,0.75,0,0.75
						C3.03,256,0,252.95,0,249.2C0,249.2,0.31,249.2,0.73,249.2"/>
					<path class="st11" d="M0.71,249.2c0.1,0.1,0.02,0.33,0.03,0.47c0.1,1.45,1.39,5.3,6.05,5.6c0,0.42,0,0.72,0,0.72
						C3.03,256,0,252.95,0,249.2C0,249.2,0.3,249.2,0.71,249.2"/>
					<path class="st12" d="M0.68,249.2c0.29,4.04,3.37,6,6.11,6.1c0,0.4,0,0.69,0,0.69C3.03,256,0,252.95,0,249.2
						C0,249.2,0.28,249.2,0.68,249.2"/>
					<path class="st13" d="M0.65,249.2c0.11,0.1,0.02,0.34,0.03,0.48c0.11,1.46,1.41,5.33,6.1,5.65c0,0.39,0,0.67,0,0.67
						C3.03,256,0,252.95,0,249.2C0,249.2,0.27,249.2,0.65,249.2"/>
					<path class="st14" d="M0.62,249.2c0.02,0.02,0,0.07,0,0.1c0.08,1.95,1.48,5.73,6.16,6.05c0,0.38,0,0.64,0,0.64
						C3.03,256,0,252.95,0,249.2C0,249.2,0.26,249.2,0.62,249.2"/>
					<path class="st15" d="M0.6,249.2c0.26,3.56,2.69,5.98,6.19,6.18c0,0.36,0,0.62,0,0.62C3.03,256,0,252.95,0,249.2
						C0,249.2,0.25,249.2,0.6,249.2"/>
					<path class="st16" d="M0.57,249.2c0.11,0.1,0.03,0.34,0.04,0.48c0.11,1.48,1.44,5.39,6.17,5.72c0,0.35,0,0.59,0,0.59
						C3.03,256,0,252.95,0,249.2C0,249.2,0.24,249.2,0.57,249.2"/>
					<path class="st17" d="M0.55,249.2c0.06,0.05,0.01,0.18,0.01,0.25c0.12,2.23,1.88,5.67,6.22,5.97c0,0.34,0,0.57,0,0.57
						C3.03,256,0,252.95,0,249.2C0,249.2,0.22,249.2,0.55,249.2"/>
					<path class="st17" d="M0.53,249.2c0.11,0.1,0.03,0.34,0.04,0.49c0.16,2.09,1.98,5.5,6.22,5.76c0,0.33,0,0.55,0,0.55
						C3.03,256,0,252.95,0,249.2C0,249.2,0.21,249.2,0.53,249.2"/>
					<path class="st18" d="M0.51,249.2c0.11,0.1,0.03,0.34,0.04,0.49c0.11,1.49,1.45,5.44,6.24,5.78c0,0.31,0,0.53,0,0.53
						C3.03,256,0,252.95,0,249.2C0,249.2,0.2,249.2,0.51,249.2"/>
					<path class="st18" d="M0.48,249.2c0.07,0.06,0.01,0.22,0.02,0.31c0.14,2.23,1.92,5.67,6.28,5.98c0,0.3,0,0.5,0,0.5
						C3.03,256,0,252.95,0,249.2C0,249.2,0.19,249.2,0.48,249.2"/>
					<path class="st19" d="M0.46,249.2c0.11,0.1,0.03,0.35,0.04,0.49c0.16,2.11,2,5.55,6.29,5.82c0,0.29,0,0.48,0,0.48
						C3.03,256,0,252.95,0,249.2C0,249.2,0.18,249.2,0.46,249.2"/>
					<path class="st20" d="M0.44,249.2c0.11,0.1,0.03,0.35,0.04,0.5c0.11,1.51,1.47,5.5,6.31,5.84c0,0.28,0,0.46,0,0.46
						C3.03,256,0,252.95,0,249.2C0,249.2,0.18,249.2,0.44,249.2"/>
					<path class="st21" d="M0.42,249.2c0.07,0.07,0.01,0.22,0.02,0.32c0.14,2.26,1.94,5.73,6.34,6.04c0,0.27,0,0.44,0,0.44
						C3.03,256,0,252.95,0,249.2C0,249.2,0.17,249.2,0.42,249.2"/>
					<path class="st21" d="M0.4,249.2L0.4,249.2c0.27,3.61,2.83,6.17,6.38,6.37c0,0.26,0,0.42,0,0.42C3.03,256,0,252.95,0,249.2
						C0,249.2,0.16,249.2,0.4,249.2"/>
					<path class="st22" d="M0.38,249.2c0.27,3.63,2.78,6.14,6.4,6.39c0,0.24,0,0.4,0,0.4C3.03,256,0,252.95,0,249.2
						C0,249.2,0.15,249.2,0.38,249.2"/>
					<path class="st23" d="M0.36,249.2c0.06,0.06,0.01,0.2,0.02,0.29c0.13,2.29,1.94,5.82,6.41,6.13c0,0.23,0,0.38,0,0.38
						C3.03,256,0,252.95,0,249.2C0,249.2,0.14,249.2,0.36,249.2"/>
					<path class="st24" d="M0.35,249.2c0.11,0.1,0.03,0.35,0.04,0.5c0.17,2.33,2.27,5.71,6.4,5.93c0,0.22,0,0.37,0,0.37
						C3.03,256,0,252.95,0,249.2C0,249.2,0.13,249.2,0.35,249.2"/>
					<path class="st25" d="M0.33,249.2c0.11,0.1,0.03,0.35,0.04,0.5c0.11,1.54,1.48,5.61,6.42,5.94c0,0.21,0,0.35,0,0.35
						C3.03,256,0,252.95,0,249.2C0,249.2,0.13,249.2,0.33,249.2"/>
					<path class="st25" d="M0.31,249.2c0.05,0.05,0.01,0.16,0.01,0.23c0.12,2.34,1.93,5.93,6.46,6.23c0,0.2,0,0.33,0,0.33
						C3.03,256,0,252.95,0,249.2C0,249.2,0.12,249.2,0.31,249.2"/>
					<path class="st26" d="M0.29,249.2c0.11,0.1,0.02,0.35,0.04,0.51c0.17,2.37,2.28,5.79,6.46,5.98c0,0.19,0,0.31,0,0.31
						C3.03,256,0,252.95,0,249.2C0,249.2,0.11,249.2,0.29,249.2"/>
					<path class="st26" d="M0.28,249.2c0.11,0.1,0.02,0.36,0.03,0.51c0.11,1.55,1.48,5.66,6.47,5.99c0,0.18,0,0.3,0,0.3
						C3.03,256,0,252.95,0,249.2C0,249.2,0.11,249.2,0.28,249.2"/>
					<path class="st27" d="M0.26,249.2c0.04,0.04,0.01,0.13,0.01,0.18c0.1,2.38,1.92,6.03,6.52,6.33c0,0.17,0,0.28,0,0.28
						C3.03,256,0,252.95,0,249.2C0,249.2,0.1,249.2,0.26,249.2"/>
					<path class="st28" d="M0.25,249.2c0.11,0.1,0.02,0.36,0.03,0.51c0.16,2.4,2.29,5.86,6.51,6.02c0,0.16,0,0.26,0,0.26
						C3.03,256,0,252.95,0,249.2C0,249.2,0.09,249.2,0.25,249.2"/>
					<path class="st1" d="M0.23,249.2c0.11,0.11,0.02,0.36,0.03,0.51c0.1,1.46,1.5,5.72,6.52,6.04c0,0.15,0,0.25,0,0.25
						C3.03,256,0,252.95,0,249.2C0,249.2,0.09,249.2,0.23,249.2"/>
					<path class="st1" d="M0.22,249.2c0.04,0.03,0,0.12,0.01,0.17c0.09,2.41,1.92,6.11,6.56,6.4c0,0.14,0,0.23,0,0.23
						C3.03,256,0,252.95,0,249.2C0,249.2,0.08,249.2,0.22,249.2"/>
					<path class="st29" d="M0.2,249.2c0.11,0.11,0.02,0.36,0.03,0.51c0.15,2.36,2.34,5.91,6.55,6.06c0,0.14,0,0.22,0,0.22
						C3.03,256,0,252.95,0,249.2C0,249.2,0.07,249.2,0.2,249.2"/>
					<path class="st30" d="M0.19,249.2c0.11,0.11,0.02,0.36,0.03,0.52c0.09,1.48,1.49,5.77,6.57,6.08c0,0.13,0,0.2,0,0.2
						C3.03,256,0,252.95,0,249.2C0,249.2,0.07,249.2,0.19,249.2"/>
					<path class="st31" d="M0.17,249.2c0.05,0.05,0.01,0.17,0.01,0.25c0.1,2.32,1.97,6.09,6.61,6.36c0,0.12,0,0.18,0,0.18
						C3.03,256,0,252.95,0,249.2C0,249.2,0.06,249.2,0.17,249.2"/>
					<path class="st31" d="M0.16,249.2c0.11,0.11,0.02,0.36,0.03,0.52c0.14,2.42,2.29,5.91,6.6,6.11c0,0.11,0,0.17,0,0.17
						C3.03,256,0,252.95,0,249.2C0,249.2,0.06,249.2,0.16,249.2"/>
					<path class="st32" d="M0.14,249.2c0.11,0.11,0.02,0.36,0.03,0.52c0.09,1.5,1.48,5.83,6.62,6.12c0,0.1,0,0.15,0,0.15
						C3.03,256,0,252.95,0,249.2C0,249.2,0.05,249.2,0.14,249.2"/>
					<path class="st32" d="M0.12,249.2c0.11,0.11,0.02,0.36,0.03,0.52c0.09,1.5,1.49,5.86,6.63,6.14c0,0.09,0,0.14,0,0.14
						C3.03,256,0,252.95,0,249.2C0,249.2,0.05,249.2,0.12,249.2"/>
					<path class="st33" d="M0.11,249.2c0.11,0.11,0.02,0.37,0.03,0.52c0.08,1.51,1.47,5.88,6.65,6.15c0,0.08,0,0.12,0,0.12
						C3.03,256,0,252.95,0,249.2C0,249.2,0.04,249.2,0.11,249.2"/>
					<path class="st34" d="M0.09,249.2c0.11,0.11,0.02,0.37,0.03,0.52c0.08,1.52,1.48,5.92,6.67,6.17c0,0.07,0,0.1,0,0.1
						C3.03,256,0,252.95,0,249.2C0,249.2,0.03,249.2,0.09,249.2"/>
					<path class="st35" d="M0.07,249.2c0.11,0.11,0.02,0.37,0.02,0.52c0.09,1.92,1.84,5.97,6.69,6.19c0,0.05,0,0.08,0,0.08
						C3.03,256,0,252.95,0,249.2C0,249.2,0.03,249.2,0.07,249.2"/>
				</g>
			</g>
			<g class="st0">
				<defs>
					<path id="SVGID_5_" class="st0" d="M255,249.2c0.55,0,1,0,1,0c0,3.75-3.04,6.79-6.8,6.79c0,0,0-0.45,0-1
						C252.4,255,255,252.4,255,249.2z"/>
				</defs>
				<clipPath id="SVGID_6_">
					<use xlink:href="#SVGID_5_"  style="overflow:visible;"/>
				</clipPath>
				<g class="st37">
					<path class="st38" d="M255,249.2c0.55,0,1,0,1,0c0,3.75-3.04,6.79-6.8,6.79c0,0,0-0.45,0-1C252.4,255,255,252.4,255,249.2"/>
					<path class="st38" d="M249.2,255c3.2,0,5.8-2.6,5.8-5.79c0.14,0,0.27,0,0.4,0c0,0,0,0,0,0c0.02,0.09,0.01,0.27,0.1,0.3
						c0.02,0.01,0.05,0,0.06-0.02c0.07-0.06,0.09-0.2,0.11-0.29c0.2,0,0.33,0,0.33,0c0,3.75-3.04,6.79-6.8,6.79
						C249.2,256,249.2,255.55,249.2,255"/>
					<path class="st39" d="M249.2,255c3.2,0,5.8-2.6,5.8-5.79c0.11,0,0.22,0,0.32,0c0,0,0,0,0,0c0.07,0.55,0.09,0.67,0.15,0.67
						c0.06,0,0.15-0.11,0.25-0.67c0.17,0,0.28,0,0.28,0c0,3.75-3.04,6.79-6.8,6.79C249.2,256,249.2,255.55,249.2,255"/>
					<path class="st40" d="M249.2,255c3.2,0,5.8-2.6,5.8-5.79c0.09,0,0.17,0,0.25,0c0,0,0,0,0,0c0.06,1,0.06,1,0.1,1.02
						c0.02,0.01,0.05,0.01,0.07,0c0.03-0.02,0.23-0.27,0.33-1.02c0.15,0,0.25,0,0.25,0c0,3.75-3.04,6.79-6.8,6.79
						C249.2,256,249.2,255.55,249.2,255"/>
					<path class="st40" d="M249.2,255c3.2,0,5.8-2.6,5.8-5.79c0.07,0,0.13,0,0.2,0c0,0,0,0,0,0c0.04,1.41,0.04,1.41,0.08,1.42
						c0.08,0.01,0.39-0.41,0.5-1.42c0.14,0,0.22,0,0.22,0c0,3.75-3.04,6.79-6.8,6.79C249.2,256,249.2,255.55,249.2,255"/>
					<path class="st41" d="M249.2,255c3.2,0,5.8-2.6,5.8-5.79c0.05,0,0.1,0,0.14,0c0,0,0,0,0,0c0.01,0.45,0.01,0.63-0.06,1.32
						c-0.04,0.4-0.01,0.47,0.02,0.49c0.08,0.05,0.56-0.44,0.7-1.81c0.13,0,0.2,0,0.2,0c0,3.75-3.04,6.79-6.8,6.79
						C249.2,256,249.2,255.55,249.2,255"/>
					<path class="st41" d="M249.2,255c3.2,0,5.8-2.6,5.8-5.79c0.03,0,0.07,0,0.1,0c0,0,0,0,0,0c0,0.44-0.01,0.81-0.12,1.45
						c-0.13,0.73-0.13,0.73-0.09,0.77c0.01,0.02,0.05,0.02,0.07,0.01c0.07-0.02,0.73-0.64,0.87-2.24c0.11,0,0.18,0,0.18,0
						c0,3.75-3.04,6.79-6.8,6.79C249.2,256,249.2,255.55,249.2,255"/>
					<path class="st3" d="M249.2,255c3.2,0,5.8-2.6,5.8-5.79c0.02,0,0.04,0,0.05,0c0,0,0,0,0,0c-0.01,0.54-0.03,1.16-0.35,2.2
						c-0.09,0.3-0.15,0.48-0.12,0.52c0.01,0.02,0.05,0.02,0.08,0.01c0.1-0.02,1.03-0.82,1.18-2.73c0.11,0,0.17,0,0.17,0
						c0,3.75-3.04,6.79-6.8,6.79C249.2,256,249.2,255.55,249.2,255"/>
					<path class="st3" d="M249.2,255c3.2,0,5.8-2.6,5.8-5.79c0,0,0.01,0,0.01,0c-0.02,0.67-0.06,1.59-0.76,2.95
						c-0.07,0.13-0.2,0.32-0.17,0.47c1.55-1.03,1.72-2.83,1.77-3.41c0.1,0,0.15,0,0.15,0c0,3.75-3.04,6.79-6.8,6.79
						C249.2,256,249.2,255.55,249.2,255"/>
					<path class="st4" d="M249.2,255.02c2.63-0.09,6.41-2.17,6.66-5.82c0.09,0,0.14,0,0.14,0c0,3.75-3.04,6.79-6.8,6.79
						C249.2,256,249.2,255.56,249.2,255.02"/>
					<path class="st4" d="M249.2,255.06c3.04-0.09,6.46-2.36,6.67-5.86c0.08,0,0.13,0,0.13,0c0,3.75-3.04,6.79-6.8,6.79
						C249.2,256,249.2,255.58,249.2,255.06"/>
					<path class="st5" d="M249.2,255.09c2.42-0.06,6.36-1.72,6.68-5.89c0.08,0,0.12,0,0.12,0c0,3.75-3.04,6.79-6.8,6.79
						C249.2,256,249.2,255.6,249.2,255.09"/>
					<path class="st6" d="M249.2,255.13c3.1-0.07,6.5-2.17,6.69-5.93c0.07,0,0.11,0,0.11,0c0,3.75-3.04,6.79-6.8,6.79
						C249.2,256,249.2,255.62,249.2,255.13"/>
					<path class="st7" d="M249.2,255.16c3.63-0.07,6.57-2.69,6.69-5.96c0.06,0,0.1,0,0.1,0c0,3.75-3.04,6.79-6.8,6.79
						C249.2,256,249.2,255.63,249.2,255.16"/>
					<path class="st8" d="M249.2,255.19c3.18-0.05,6.5-2.12,6.7-5.99c0.06,0,0.09,0,0.09,0c0,3.75-3.04,6.79-6.8,6.79
						C249.2,256,249.2,255.65,249.2,255.19"/>
					<path class="st9" d="M249.2,255.22c2.53,0.01,6.41-1.59,6.71-6.02c0.06,0,0.09,0,0.09,0c0,3.75-3.04,6.79-6.8,6.79
						C249.2,256,249.2,255.66,249.2,255.22"/>
					<path class="st10" d="M249.2,255.25c3.7-0.04,6.59-2.64,6.72-6.05c0.05,0,0.08,0,0.08,0c0,3.75-3.04,6.79-6.8,6.79
						C249.2,256,249.2,255.68,249.2,255.25"/>
					<path class="st11" d="M249.2,255.27L249.2,255.27c3.77-0.03,6.6-2.59,6.72-6.07c0.05,0,0.07,0,0.07,0
						c0,3.75-3.04,6.79-6.8,6.79C249.2,256,249.2,255.69,249.2,255.27"/>
					<path class="st12" d="M249.2,255.3c3.76-0.03,6.59-2.6,6.73-6.1c0.04,0,0.07,0,0.07,0c0,3.75-3.04,6.79-6.8,6.79
						C249.2,256,249.2,255.7,249.2,255.3"/>
					<path class="st13" d="M249.2,255.33c3.77-0.02,6.54-2.54,6.73-6.13c0.04,0,0.06,0,0.06,0c0,3.75-3.04,6.79-6.8,6.79
						C249.2,256,249.2,255.72,249.2,255.33"/>
					<path class="st14" d="M249.2,255.35c3.81-0.01,6.64-2.6,6.74-6.15c0.04,0,0.06,0,0.06,0c0,3.75-3.04,6.79-6.8,6.79
						C249.2,256,249.2,255.73,249.2,255.35"/>
					<path class="st15" d="M249.2,255.38L249.2,255.38c4.32-0.02,6.67-3.12,6.74-6.18c0.03,0,0.05,0,0.05,0
						c0,3.75-3.04,6.79-6.8,6.79C249.2,256,249.2,255.74,249.2,255.38"/>
					<path class="st16" d="M249.2,255.4c4.33-0.02,6.67-3.13,6.75-6.2c0.03,0,0.05,0,0.05,0c0,3.75-3.04,6.79-6.8,6.79
						C249.2,256,249.2,255.75,249.2,255.4"/>
					<path class="st17" d="M249.2,255.43c3.79,0.04,6.63-2.57,6.75-6.22c0.03,0,0.04,0,0.04,0c0,3.75-3.04,6.79-6.8,6.79
						C249.2,256,249.2,255.76,249.2,255.43"/>
					<path class="st17" d="M249.2,255.45c3.86-0.01,6.57-2.52,6.76-6.25c0.02,0,0.04,0,0.04,0c0,3.75-3.04,6.79-6.8,6.79
						C249.2,256,249.2,255.77,249.2,255.45"/>
					<path class="st18" d="M249.2,255.47c4.36-0.01,6.7-3.16,6.76-6.27c0.02,0,0.03,0,0.03,0c0,3.75-3.04,6.79-6.8,6.79
						C249.2,256,249.2,255.78,249.2,255.47"/>
					<path class="st18" d="M249.2,255.49c3.73,0.06,6.7-2.7,6.76-6.29c0.03,3.75-3.01,6.79-6.76,6.79
						C249.2,256,249.2,255.79,249.2,255.49"/>
					<path class="st19" d="M249.2,255.51c4.38-0.01,6.72-3.18,6.77-6.31c0.03,3.75-3.01,6.79-6.77,6.79
						C249.2,256,249.2,255.8,249.2,255.51"/>
					<path class="st20" d="M249.2,255.53c4.34-0.01,6.69-3.19,6.77-6.33c0.02,3.75-3.02,6.79-6.77,6.79
						C249.2,256,249.2,255.81,249.2,255.53"/>
					<path class="st21" d="M249.2,255.55c3.23,0.05,6.6-2.11,6.77-6.35c0.02,3.75-3.02,6.79-6.77,6.79
						C249.2,256,249.2,255.82,249.2,255.55"/>
					<path class="st21" d="M249.2,255.57L249.2,255.57c4.4-0.01,6.74-3.22,6.78-6.37c0.02,3.75-3.02,6.79-6.78,6.79
						C249.2,256,249.2,255.83,249.2,255.57"/>
					<path class="st22" d="M249.2,255.59L249.2,255.59c4.4-0.01,6.74-3.23,6.78-6.39c0.02,3.75-3.03,6.79-6.78,6.79
						C249.2,256,249.2,255.84,249.2,255.59"/>
					<path class="st23" d="M249.2,255.61c3.77,0.05,6.75-2.77,6.78-6.41c0.01,3.75-3.03,6.79-6.78,6.79
						C249.2,256,249.2,255.85,249.2,255.61"/>
					<path class="st24" d="M249.2,255.63L249.2,255.63c4.41-0.02,6.75-3.25,6.78-6.43c0.01,3.75-3.03,6.79-6.78,6.79
						C249.2,256,249.2,255.85,249.2,255.63"/>
					<path class="st25" d="M249.2,255.65c3.88-0.02,6.67-2.67,6.79-6.45c0.01,3.75-3.03,6.79-6.79,6.79
						C249.2,256,249.2,255.86,249.2,255.65"/>
					<path class="st25" d="M249.2,255.67L249.2,255.67c4.38,0.03,6.77-3.31,6.79-6.46c0.01,3.75-3.03,6.79-6.79,6.79
						C249.2,256,249.2,255.87,249.2,255.67"/>
					<path class="st26" d="M249.2,255.68L249.2,255.68c4.39-0.02,6.77-3.36,6.79-6.48c0.01,3.75-3.04,6.79-6.79,6.79
						C249.2,256,249.2,255.88,249.2,255.68"/>
					<path class="st26" d="M249.2,255.7c4.39-0.03,6.78-3.37,6.79-6.5c0,3.75-3.04,6.79-6.79,6.79
						C249.2,256,249.2,255.88,249.2,255.7"/>
					<path class="st27" d="M249.2,255.72c4.4,0.01,6.78-3.35,6.79-6.52c0,3.75-3.04,6.79-6.79,6.79
						C249.2,256,249.2,255.89,249.2,255.72"/>
					<path class="st28" d="M249.2,255.73c3.91-0.03,6.7-2.72,6.79-6.53c0,3.75-3.04,6.79-6.79,6.79
						C249.2,256,249.2,255.9,249.2,255.73"/>
					<path class="st1" d="M249.2,255.75c4.4-0.04,6.79-3.4,6.79-6.55c0,3.75-3.04,6.79-6.79,6.79
						C249.2,256,249.2,255.9,249.2,255.75"/>
					<path class="st1" d="M249.2,255.76c4.41-0.01,6.79-3.39,6.79-6.56c0,3.75-3.04,6.79-6.79,6.79
						C249.2,256,249.2,255.91,249.2,255.76"/>
					<path class="st29" d="M249.2,255.78c3.91-0.04,6.64-2.68,6.79-6.58c0,3.75-3.04,6.79-6.79,6.79
						C249.2,256,249.2,255.92,249.2,255.78"/>
					<path class="st30" d="M249.2,255.8c3.9-0.04,6.63-2.67,6.79-6.54c-0.03,3.73-3.06,6.74-6.79,6.74
						C249.2,256,249.2,255.92,249.2,255.8"/>
					<path class="st31" d="M249.2,255.81L249.2,255.81c4.16,0.01,6.56-3.09,6.78-6.16c-0.23,3.54-3.18,6.34-6.78,6.34
						C249.2,256,249.2,255.93,249.2,255.81"/>
					<path class="st31" d="M249.2,255.83c4.1-0.05,6.34-2.94,6.74-5.78c-0.42,3.35-3.28,5.95-6.74,5.95
						C249.2,256,249.2,255.93,249.2,255.83"/>
					<path class="st32" d="M249.2,255.84c4.1-0.06,6.14-2.82,6.68-5.38c-0.59,3.15-3.36,5.54-6.68,5.54
						C249.2,256,249.2,255.94,249.2,255.84"/>
					<path class="st32" d="M249.2,255.86c2.37,0.04,5.51-1.23,6.58-4.97c-0.75,2.94-3.41,5.11-6.58,5.11
						C249.2,256,249.2,255.95,249.2,255.86"/>
					<path class="st33" d="M249.2,255.88c4.19-0.06,5.84-2.87,6.45-4.53c-0.9,2.7-3.45,4.65-6.45,4.65
						C249.2,256,249.2,255.95,249.2,255.88"/>
					<path class="st34" d="M249.2,255.89c1.03,0.01,4.52-0.24,6.26-4.03c-1.03,2.43-3.45,4.14-6.26,4.14
						C249.2,256,249.2,255.96,249.2,255.89"/>
					<path class="st35" d="M249.2,255.91c3.34-0.06,5.08-1.9,5.95-3.43c-1.16,2.09-3.39,3.51-5.95,3.51
						C249.2,256,249.2,255.97,249.2,255.91"/>
				</g>
			</g>
			<g class="st0">
				<defs>
					<path id="SVGID_7_" class="st0" d="M255,6.79c0.55,0,1,0,1,0l0,242.42c0,0-0.45,0-1,0C255,249.2,255,6.79,255,6.79z"/>
				</defs>
				<clipPath id="SVGID_8_">
					<use xlink:href="#SVGID_7_"  style="overflow:visible;"/>
				</clipPath>
				<g class="st42">
					<polyline class="st3" points="255,249.2 255,6.79 255.01,6.79 255.01,249.2 255,249.2 					"/>
					<path class="st3" d="M255.01,249.2V6.79c0.01,0,0.03,0,0.04,0V249.2C255.04,249.2,255.02,249.2,255.01,249.2"/>
					<path class="st41" d="M255.05,249.2V6.79c0.01,0,0.03,0,0.04,0V249.2C255.08,249.2,255.06,249.2,255.05,249.2"/>
					<path class="st41" d="M255.09,249.2V6.79c0.02,0,0.03,0,0.05,0V249.2C255.13,249.2,255.11,249.2,255.09,249.2"/>
					<path class="st40" d="M255.14,249.2V6.79c0.02,0,0.03,0,0.05,0V249.2C255.18,249.2,255.16,249.2,255.14,249.2"/>
					<path class="st40" d="M255.19,249.2V6.79c0.02,0,0.04,0,0.06,0V249.2C255.23,249.2,255.21,249.2,255.19,249.2"/>
					<path class="st39" d="M255.25,249.2V6.79c0.02,0,0.04,0,0.06,0V249.2C255.29,249.2,255.27,249.2,255.25,249.2"/>
					<path class="st38" d="M255.31,249.2V6.79c0.03,0,0.05,0,0.08,0V249.2C255.36,249.2,255.34,249.2,255.31,249.2"/>
					<path class="st43" d="M255.39,249.2V6.79c0.1,0,0.19,0,0.28,0V249.2C255.58,249.2,255.49,249.2,255.39,249.2"/>
					<path class="st38" d="M255.67,249.2V6.79c0.02,0,0.03,0,0.05,0V249.2C255.7,249.2,255.68,249.2,255.67,249.2"/>
					<path class="st39" d="M255.72,249.2V6.79c0.01,0,0.02,0,0.03,0V249.2C255.74,249.2,255.73,249.2,255.72,249.2"/>
					<path class="st40" d="M255.75,249.2V6.79c0.01,0,0.02,0,0.02,0V249.2C255.77,249.2,255.76,249.2,255.75,249.2"/>
					<path class="st40" d="M255.77,249.2V6.79c0.01,0,0.01,0,0.02,0V249.2C255.79,249.2,255.78,249.2,255.77,249.2"/>
					<path class="st41" d="M255.8,249.2V6.79c0.01,0,0.01,0,0.02,0V249.2C255.81,249.2,255.8,249.2,255.8,249.2"/>
					<path class="st41" d="M255.81,249.2V6.79c0.01,0,0.01,0,0.02,0V249.2C255.82,249.2,255.82,249.2,255.81,249.2"/>
					<path class="st3" d="M255.83,249.2V6.79c0.01,0,0.01,0,0.01,0V249.2C255.84,249.2,255.83,249.2,255.83,249.2"/>
					<polyline class="st3" points="255.84,249.2 255.84,6.79 255.86,6.79 255.86,249.2 255.84,249.2 					"/>
					<polyline class="st4" points="255.86,249.2 255.86,6.79 255.87,6.79 255.87,249.2 255.86,249.2 					"/>
					<polyline class="st4" points="255.87,249.2 255.87,6.79 255.88,6.79 255.88,249.2 255.87,249.2 					"/>
					<polyline class="st5" points="255.88,249.2 255.88,6.79 255.89,6.79 255.89,249.2 255.88,249.2 					"/>
					<polyline class="st6" points="255.89,249.2 255.89,6.79 255.89,6.79 255.89,249.2 255.89,249.2 					"/>
					<polyline class="st7" points="255.89,249.2 255.89,6.79 255.9,6.79 255.9,249.2 255.89,249.2 					"/>
					<polyline class="st8" points="255.9,249.2 255.9,6.79 255.91,6.79 255.91,249.2 255.9,249.2 					"/>
					<polyline class="st9" points="255.91,249.2 255.91,6.79 255.92,6.79 255.92,249.2 255.91,249.2 					"/>
					<polyline class="st10" points="255.92,249.2 255.92,6.79 255.92,6.79 255.92,249.2 255.92,249.2 					"/>
					<polyline class="st11" points="255.92,249.2 255.92,6.79 255.93,6.79 255.93,249.2 255.92,249.2 					"/>
					<polyline class="st12" points="255.93,249.2 255.93,6.79 255.93,6.79 255.93,249.2 255.93,249.2 					"/>
					<polyline class="st13" points="255.93,249.2 255.93,6.79 255.94,6.79 255.94,249.2 255.93,249.2 					"/>
					<polyline class="st14" points="255.94,249.2 255.94,6.79 255.94,6.79 255.94,249.2 255.94,249.2 					"/>
					<polyline class="st15" points="255.94,249.2 255.94,6.79 255.95,6.79 255.95,249.2 255.94,249.2 					"/>
					<polyline class="st16" points="255.95,249.2 255.95,6.79 255.95,6.79 255.95,249.2 255.95,249.2 					"/>
					<polyline class="st17" points="255.95,249.2 255.95,6.79 255.96,6.79 255.96,249.2 255.95,249.2 					"/>
					<polyline class="st17" points="255.96,249.2 255.96,6.79 255.96,6.79 255.96,249.2 255.96,249.2 					"/>
					<polyline class="st18" points="255.96,249.2 255.96,6.79 255.97,6.79 255.97,249.2 255.96,249.2 					"/>
					<polyline class="st18" points="255.97,249.2 255.97,6.79 255.97,6.79 255.97,249.2 255.97,249.2 					"/>
					<polyline class="st19" points="255.97,249.2 255.97,6.79 255.97,6.79 255.97,249.2 255.97,249.2 					"/>
					<polyline class="st20" points="255.97,249.2 255.97,6.79 255.97,6.79 255.97,249.2 255.97,249.2 					"/>
					<polyline class="st21" points="255.97,249.2 255.97,6.79 255.98,6.79 255.98,249.2 255.97,249.2 					"/>
					<polyline class="st21" points="255.98,249.2 255.98,6.79 255.98,6.79 255.98,249.2 255.98,249.2 					"/>
					<polyline class="st22" points="255.98,249.2 255.98,6.79 255.98,6.79 255.98,249.2 255.98,249.2 					"/>
					<polyline class="st23" points="255.98,249.2 255.98,6.79 255.98,6.79 255.98,249.2 255.98,249.2 					"/>
					<polyline class="st24" points="255.98,249.2 255.98,6.79 255.99,6.79 255.99,249.2 255.98,249.2 					"/>
					<polyline class="st25" points="255.99,249.2 255.99,6.79 255.99,6.79 255.99,249.2 255.99,249.2 					"/>
					<polyline class="st25" points="255.99,249.2 255.99,6.79 255.99,6.79 255.99,249.2 255.99,249.2 					"/>
					<polyline class="st26" points="255.99,249.2 255.99,6.79 255.99,6.79 255.99,249.2 255.99,249.2 					"/>
					<polyline class="st26" points="255.99,249.2 255.99,6.79 255.99,6.79 255.99,249.2 255.99,249.2 					"/>
					<polyline class="st27" points="255.99,249.2 255.99,6.79 255.99,6.79 255.99,249.2 255.99,249.2 					"/>
					<polyline class="st28" points="255.99,249.2 255.99,6.79 255.99,6.79 255.99,249.2 255.99,249.2 					"/>
					<polyline class="st1" points="255.99,249.2 255.99,6.79 256,6.79 256,249.2 255.99,249.2 					"/>
					<polyline class="st1" points="256,249.2 256,6.79 256,6.79 256,249.2 256,249.2 					"/>
					<polyline class="st29" points="256,249.2 256,6.79 256,6.79 256,249.2 256,249.2 					"/>
				</g>
			</g>
			<g class="st0">
				<defs>
					<path id="SVGID_9_" class="st0" d="M1,249.2c-0.55,0-1,0-1,0L0,6.79c0,0,0.45,0,1,0C1,6.79,1,249.2,1,249.2z"/>
				</defs>
				<clipPath id="SVGID_10_">
					<use xlink:href="#SVGID_9_"  style="overflow:visible;"/>
				</clipPath>
				<g class="st44">
					<path class="st3" d="M1,6.79V249.2c-0.01,0-0.02,0-0.03,0V6.79C0.98,6.79,0.99,6.79,1,6.79"/>
					<path class="st4" d="M0.97,6.79V249.2c-0.01,0-0.03,0-0.04,0V6.79C0.94,6.79,0.96,6.79,0.97,6.79"/>
					<path class="st4" d="M0.93,6.79V249.2c-0.01,0-0.02,0-0.04,0V6.79C0.91,6.79,0.92,6.79,0.93,6.79"/>
					<path class="st5" d="M0.9,6.79V249.2c-0.01,0-0.02,0-0.03,0V6.79C0.87,6.79,0.88,6.79,0.9,6.79"/>
					<path class="st6" d="M0.86,6.79V249.2c-0.01,0-0.02,0-0.03,0V6.79C0.84,6.79,0.85,6.79,0.86,6.79"/>
					<path class="st7" d="M0.83,6.79V249.2c-0.01,0-0.02,0-0.03,0V6.79C0.81,6.79,0.82,6.79,0.83,6.79"/>
					<path class="st8" d="M0.79,6.79V249.2c-0.01,0-0.02,0-0.03,0V6.79C0.77,6.79,0.78,6.79,0.79,6.79"/>
					<path class="st9" d="M0.76,6.79V249.2c-0.01,0-0.02,0-0.03,0V6.79C0.74,6.79,0.75,6.79,0.76,6.79"/>
					<path class="st10" d="M0.73,6.79V249.2c-0.01,0-0.02,0-0.03,0V6.79C0.71,6.79,0.72,6.79,0.73,6.79"/>
					<path class="st11" d="M0.71,6.79V249.2c-0.01,0-0.02,0-0.03,0V6.79C0.69,6.79,0.7,6.79,0.71,6.79"/>
					<path class="st12" d="M0.68,6.79V249.2c-0.01,0-0.02,0-0.03,0V6.79C0.66,6.79,0.67,6.79,0.68,6.79"/>
					<path class="st13" d="M0.65,6.79V249.2c-0.01,0-0.02,0-0.03,0V6.79C0.63,6.79,0.64,6.79,0.65,6.79"/>
					<path class="st14" d="M0.62,6.79V249.2c-0.01,0-0.02,0-0.03,0V6.79C0.61,6.79,0.62,6.79,0.62,6.79"/>
					<path class="st15" d="M0.6,6.79V249.2c-0.01,0-0.02,0-0.02,0V6.79C0.58,6.79,0.59,6.79,0.6,6.79"/>
					<path class="st16" d="M0.58,6.79V249.2c-0.01,0-0.02,0-0.02,0V6.79C0.56,6.79,0.57,6.79,0.58,6.79"/>
					<path class="st17" d="M0.55,6.79V249.2c-0.01,0-0.02,0-0.02,0V6.79C0.54,6.79,0.54,6.79,0.55,6.79"/>
					<path class="st17" d="M0.53,6.79V249.2c-0.01,0-0.01,0-0.02,0V6.79C0.51,6.79,0.52,6.79,0.53,6.79"/>
					<path class="st18" d="M0.51,6.79V249.2c-0.01,0-0.01,0-0.02,0V6.79C0.49,6.79,0.5,6.79,0.51,6.79"/>
					<path class="st18" d="M0.48,6.79V249.2c-0.01,0-0.01,0-0.02,0V6.79C0.47,6.79,0.48,6.79,0.48,6.79"/>
					<path class="st19" d="M0.46,6.79V249.2c-0.01,0-0.01,0-0.02,0V6.79C0.45,6.79,0.46,6.79,0.46,6.79"/>
					<path class="st20" d="M0.44,6.79V249.2c-0.01,0-0.01,0-0.02,0V6.79C0.43,6.79,0.44,6.79,0.44,6.79"/>
					<path class="st21" d="M0.42,6.79V249.2c-0.01,0-0.01,0-0.02,0V6.79C0.41,6.79,0.42,6.79,0.42,6.79"/>
					<path class="st21" d="M0.4,6.79V249.2c-0.01,0-0.01,0-0.02,0V6.79C0.39,6.79,0.4,6.79,0.4,6.79"/>
					<path class="st22" d="M0.38,6.79V249.2c-0.01,0-0.01,0-0.02,0V6.79C0.37,6.79,0.38,6.79,0.38,6.79"/>
					<path class="st23" d="M0.36,6.79V249.2c-0.01,0-0.01,0-0.02,0V6.79C0.35,6.79,0.36,6.79,0.36,6.79"/>
					<path class="st24" d="M0.35,6.79V249.2c-0.01,0-0.01,0-0.02,0V6.79C0.33,6.79,0.34,6.79,0.35,6.79"/>
					<path class="st25" d="M0.33,6.79V249.2c-0.01,0-0.01,0-0.02,0V6.79C0.32,6.79,0.32,6.79,0.33,6.79"/>
					<path class="st25" d="M0.31,6.79V249.2c-0.01,0-0.01,0-0.02,0V6.79C0.3,6.79,0.31,6.79,0.31,6.79"/>
					<path class="st26" d="M0.29,6.79V249.2c-0.01,0-0.01,0-0.02,0V6.79C0.28,6.79,0.29,6.79,0.29,6.79"/>
					<path class="st26" d="M0.28,6.79V249.2c-0.01,0-0.01,0-0.02,0V6.79C0.27,6.79,0.27,6.79,0.28,6.79"/>
					<path class="st27" d="M0.26,6.79V249.2c-0.01,0-0.01,0-0.02,0V6.79C0.25,6.79,0.26,6.79,0.26,6.79"/>
					<path class="st28" d="M0.25,6.79V249.2c-0.01,0-0.01,0-0.02,0V6.79C0.24,6.79,0.24,6.79,0.25,6.79"/>
					<path class="st1" d="M0.23,6.79V249.2c-0.01,0-0.01,0-0.02,0V6.79C0.22,6.79,0.23,6.79,0.23,6.79"/>
					<path class="st1" d="M0.22,6.79V249.2c-0.01,0-0.01,0-0.01,0V6.79C0.21,6.79,0.21,6.79,0.22,6.79"/>
					<path class="st29" d="M0.2,6.79V249.2c-0.01,0-0.01,0-0.02,0V6.79C0.19,6.79,0.19,6.79,0.2,6.79"/>
					<path class="st30" d="M0.19,6.79V249.2c-0.01,0-0.01,0-0.02,0V6.79C0.17,6.79,0.18,6.79,0.19,6.79"/>
					<polyline class="st31" points="0.17,6.79 0.17,249.2 0.16,249.2 0.16,6.79 0.17,6.79 					"/>
					<path class="st31" d="M0.16,6.79V249.2c-0.01,0-0.01,0-0.02,0V6.79C0.15,6.79,0.15,6.79,0.16,6.79"/>
					<path class="st32" d="M0.14,6.79V249.2c-0.01,0-0.01,0-0.02,0V6.79C0.13,6.79,0.13,6.79,0.14,6.79"/>
					<path class="st32" d="M0.12,6.79V249.2c-0.01,0-0.01,0-0.01,0V6.79C0.11,6.79,0.12,6.79,0.12,6.79"/>
					<path class="st33" d="M0.11,6.79V249.2c-0.01,0-0.01,0-0.02,0V6.79C0.1,6.79,0.1,6.79,0.11,6.79"/>
					<path class="st34" d="M0.09,6.79V249.2c-0.01,0-0.01,0-0.02,0V6.79C0.08,6.79,0.09,6.79,0.09,6.79"/>
					<path class="st35" d="M0.07,6.79V249.2c-0.05,0-0.07,0-0.07,0V6.79C0,6.79,0.03,6.79,0.07,6.79"/>
				</g>
			</g>
			<g>
				<path class="st3" d="M249.2,1c3.2,0,5.8,2.59,5.8,5.79c0,80.81,0,161.61,0,242.42c0,3.2-2.6,5.8-5.8,5.79
					c-80.8,0-161.61,0-242.41,0C3.59,255,1,252.4,1,249.2C1,168.4,1,87.59,1,6.79C1,3.59,3.59,1,6.79,1C87.59,1,168.4,1,249.2,1z"/>
			</g>
			<g class="st0">
				<defs>
					<path id="SVGID_11_" class="st0" d="M1,6.79c-0.55,0-1,0-1,0C0,3.03,3.03,0,6.79,0c0,0,0,0.45,0,1C3.59,1,1,3.59,1,6.79z"/>
				</defs>
				<clipPath id="SVGID_12_">
					<use xlink:href="#SVGID_11_"  style="overflow:visible;"/>
				</clipPath>
				<g class="st45">
					<path class="st46" d="M1,6.79c-0.55,0-1,0-1,0C0,3.03,3.03,0,6.79,0c0,0,0,0.45,0,1C3.59,1,1,3.59,1,6.79"/>
					<path class="st46" d="M6.79,0.34c-0.05,0.02-0.16,0.04-0.15,0.1c0.01,0.05,0.1,0.07,0.15,0.08c0,0.14,0,0.31,0,0.48
						C3.59,1,1,3.59,1,6.79c-0.55,0-1,0-1,0C0,3.03,3.03,0,6.79,0C6.79,0,6.79,0.13,6.79,0.34"/>
					<path class="st43" d="M6.79,0.28C6.37,0.36,6.3,0.42,6.29,0.45C6.28,0.53,6.47,0.56,6.79,0.61c0,0.12,0,0.25,0,0.39
						C3.59,1,1,3.59,1,6.79c-0.55,0-1,0-1,0C0,3.03,3.03,0,6.79,0C6.79,0,6.79,0.11,6.79,0.28"/>
					<path class="st38" d="M6.79,0.24c-0.73,0.1-0.83,0.24-0.83,0.25C5.94,0.5,5.93,0.53,5.94,0.55C5.96,0.59,5.97,0.6,6.79,0.67
						c0,0.1,0,0.21,0,0.33C3.59,1,1,3.59,1,6.79c-0.55,0-1,0-1,0C0,3.03,3.03,0,6.79,0C6.79,0,6.79,0.09,6.79,0.24"/>
					<path class="st39" d="M6.79,0.21c-0.81,0.08-1.22,0.32-1.21,0.4c0.01,0.06,0.01,0.06,1.21,0.12c0,0.09,0,0.18,0,0.27
						C3.59,1,1,3.59,1,6.79c-0.55,0-1,0-1,0C0,3.03,3.03,0,6.79,0C6.79,0,6.79,0.08,6.79,0.21"/>
					<path class="st40" d="M6.79,0.19c-1.32,0.14-1.56,0.49-1.56,0.5C5.22,0.71,5.22,0.74,5.23,0.75c0.09,0.1,0.31,0.03,0.45,0.03
						l1.1-0.01c0,0.07,0,0.14,0,0.22C3.59,1,1,3.59,1,6.79c-0.55,0-1,0-1,0C0,3.03,3.03,0,6.79,0C6.79,0,6.79,0.07,6.79,0.19"/>
					<path class="st40" d="M6.79,0.17c-1.75,0.2-1.94,0.69-1.94,0.69C4.86,0.93,4.94,0.94,5.4,0.89c0.68-0.07,0.84-0.07,1.39-0.07
						c0,0.06,0,0.11,0,0.17C3.59,1,1,3.59,1,6.79c-0.55,0-1,0-1,0C0,3.03,3.03,0,6.79,0C6.79,0,6.79,0.06,6.79,0.17"/>
					<path class="st41" d="M6.79,0.16L6.79,0.16c-1.8,0.15-2.36,0.85-2.31,0.92c0.07,0.1,0.3,0,0.42-0.02
						c1.25-0.18,1.28-0.19,1.89-0.19c0,0.04,0,0.09,0,0.13C3.59,1,1,3.59,1,6.79c-0.55,0-1,0-1,0C0,3.03,3.03,0,6.79,0
						C6.79,0,6.79,0.06,6.79,0.16"/>
					<path class="st41" d="M6.79,0.15L6.79,0.15C4.46,0.36,4.03,1.29,4.08,1.33C4.11,1.36,4.2,1.34,4.56,1.24
						c0.94-0.25,1.3-0.32,2.22-0.33c0,0.03,0,0.06,0,0.09C3.59,1,1,3.59,1,6.79c-0.55,0-1,0-1,0C0,3.03,3.03,0,6.79,0
						C6.79,0,6.79,0.05,6.79,0.15"/>
					<path class="st3" d="M6.79,0.13c-2.18,0.11-3.4,1.39-3.17,1.54C3.66,1.7,3.78,1.65,4.19,1.48c1.21-0.49,1.98-0.51,2.6-0.53
						c0,0.02,0,0.03,0,0.05C3.59,1,1,3.59,1,6.79c-0.55,0-1,0-1,0C0,3.03,3.03,0,6.79,0C6.79,0,6.79,0.05,6.79,0.13"/>
					<path class="st3" d="M6.79,0.12c-3.02,0.2-3.83,2.09-3.82,2.11c0.01,0.03,0.06,0.03,0.09,0.02c0.02,0,0.05-0.03,0.07-0.04
						c1.39-0.9,2.21-1.17,3.66-1.23C3.59,1,1,3.59,1,6.79c-0.55,0-1,0-1,0C0,3.03,3.03,0,6.79,0C6.79,0,6.79,0.04,6.79,0.12"/>
					<path class="st4" d="M6.79,0.11C5.54,0.21,4.22,0.5,2.97,1.94c-1.27,1.45-1.94,3.08-2,4.85c-0.54,0-0.97,0-0.97,0
						C0,3.03,3.03,0,6.79,0C6.79,0,6.79,0.04,6.79,0.11"/>
					<path class="st4" d="M6.79,0.1C1.17,0.54,0.93,6.72,0.93,6.79c-0.52,0-0.93,0-0.93,0C0,3.03,3.03,0,6.79,0
						C6.79,0,6.79,0.04,6.79,0.1"/>
					<path class="st5" d="M6.79,0.1C2.57,0.29,0.95,4.2,0.9,6.79c-0.5,0-0.9,0-0.9,0C0,3.03,3.03,0,6.79,0
						C6.79,0,6.79,0.03,6.79,0.1"/>
					<path class="st6" d="M6.79,0.09c-4.6,0.28-5.89,4.51-5.93,6.7c-0.49,0-0.86,0-0.86,0C0,3.03,3.03,0,6.79,0
						C6.79,0,6.79,0.03,6.79,0.09"/>
					<path class="st7" d="M6.79,0.08C2.15,0.4,0.86,4.45,0.83,6.79c-0.47,0-0.83,0-0.83,0C0,3.03,3.03,0,6.79,0
						C6.79,0,6.79,0.03,6.79,0.08"/>
					<path class="st8" d="M6.79,0.07C2.11,0.39,0.82,4.44,0.79,6.79c-0.45,0-0.79,0-0.79,0C0,3.03,3.03,0,6.79,0
						C6.79,0,6.79,0.03,6.79,0.07"/>
					<path class="st9" d="M6.79,0.07C3.33,0.18,0.8,3.01,0.76,6.79c-0.44,0-0.76,0-0.76,0C0,3.03,3.03,0,6.79,0
						C6.79,0,6.79,0.02,6.79,0.07"/>
					<path class="st10" d="M6.79,0.06L6.79,0.06C3.24,0.24,0.75,3,0.73,6.79c-0.42,0-0.73,0-0.73,0C0,3.03,3.03,0,6.79,0
						C6.79,0,6.79,0.02,6.79,0.06"/>
					<path class="st11" d="M6.79,0.06c-4.9,0.3-6.12,4.53-6.08,6.73c-0.41,0-0.71,0-0.71,0C0,3.03,3.03,0,6.79,0
						C6.79,0,6.79,0.02,6.79,0.06"/>
					<path class="st12" d="M6.79,0.05L6.79,0.05c-4.21,0.25-6.1,3.56-6.11,6.73c-0.39,0-0.68,0-0.68,0C0,3.03,3.03,0,6.79,0
						C6.79,0,6.79,0.02,6.79,0.05"/>
					<path class="st13" d="M6.79,0.05C2.55,0.3,0.65,3.61,0.65,6.79c-0.38,0-0.65,0-0.65,0C0,3.03,3.03,0,6.79,0
						C6.79,0,6.79,0.02,6.79,0.05"/>
					<path class="st14" d="M6.79,0.04L6.79,0.04C3.72,0.13,0.63,2.47,0.62,6.79c-0.37,0-0.62,0-0.62,0C0,3.03,3.03,0,6.79,0
						C6.79,0,6.79,0.02,6.79,0.04"/>
					<path class="st15" d="M6.79,0.04C3.14,0.2,0.59,2.97,0.6,6.79c-0.35,0-0.6,0-0.6,0C0,3.03,3.03,0,6.79,0
						C6.79,0,6.79,0.01,6.79,0.04"/>
					<path class="st16" d="M6.79,0.04C2.44,0.27,0.54,3.6,0.57,6.79c-0.34,0-0.57,0-0.57,0C0,3.03,3.03,0,6.79,0
						C6.79,0,6.79,0.01,6.79,0.04"/>
					<path class="st17" d="M6.79,0.03c-3.73,0.2-6.24,2.91-6.23,6.75c-0.33,0-0.55,0-0.55,0C0,3.03,3.03,0,6.79,0
						C6.79,0,6.79,0.01,6.79,0.03"/>
					<path class="st17" d="M6.79,0.03c-3.75,0.2-6.27,2.91-6.26,6.76c-0.31,0-0.53,0-0.53,0C0,3.03,3.03,0,6.79,0
						C6.79,0,6.79,0.01,6.79,0.03"/>
					<path class="st18" d="M6.79,0.03C2.38,0.26,0.44,3.69,0.51,6.79c-0.3,0-0.51,0-0.51,0C0,3.03,3.03,0,6.79,0
						C6.79,0,6.79,0.01,6.79,0.03"/>
					<path class="st18" d="M6.79,0.02L6.79,0.02c-4.11,0.13-6.43,3.54-6.3,6.76c-0.29,0-0.48,0-0.48,0C0,3.03,3.03,0,6.79,0
						C6.79,0,6.79,0.01,6.79,0.02"/>
					<path class="st19" d="M6.79,0.02C1.95,0.25,0.36,4.19,0.46,6.79c-0.28,0-0.46,0-0.46,0C0,3.03,3.03,0,6.79,0
						C6.79,0,6.79,0.01,6.79,0.02"/>
					<path class="st20" d="M6.79,0.02L6.79,0.02C2.32,0.24,0.37,3.68,0.44,6.79c-0.27,0-0.44,0-0.44,0C0,3.03,3.03,0,6.79,0
						C6.79,0,6.79,0.01,6.79,0.02"/>
					<path class="st21" d="M6.79,0.02L6.79,0.02C1.93,0.25,0.32,4.19,0.42,6.79c-0.26,0-0.42,0-0.42,0C0,3.03,3.03,0,6.79,0
						C6.79,0,6.79,0.01,6.79,0.02"/>
					<path class="st21" d="M6.79,0.01L6.79,0.01C1.91,0.24,0.3,4.19,0.4,6.79c-0.24,0-0.4,0-0.4,0C0,3.03,3.03,0,6.79,0
						C6.79,0,6.79,0,6.79,0.01"/>
					<path class="st22" d="M6.79,0.01L6.79,0.01C3.05,0.07,0.3,2.98,0.38,6.79c-0.23,0-0.38,0-0.38,0C0,3.03,3.03,0,6.79,0
						C6.79,0,6.79,0,6.79,0.01"/>
					<path class="st23" d="M6.79,0.01c-4.33,0.15-6.54,3.6-6.42,6.78c-0.22,0-0.36,0-0.36,0C0,3.03,3.03,0,6.79,0.01
						C6.79,0,6.79,0,6.79,0.01"/>
					<path class="st24" d="M6.79,0.01c-4.9,0.22-6.54,4.17-6.44,6.78c-0.21,0-0.35,0-0.35,0C0,3.03,3.03,0,6.79,0.01
						C6.79,0,6.79,0,6.79,0.01"/>
					<path class="st25" d="M6.79,0.01C2.27,0.2,0.27,3.66,0.33,6.79c-0.2,0-0.33,0-0.33,0C0,3.03,3.03,0,6.79,0.01
						C6.79,0,6.79,0,6.79,0.01"/>
					<path class="st25" d="M6.79,0C1.86,0.22,0.22,4.18,0.31,6.79c-0.19,0-0.31,0-0.31,0C0,3.03,3.03,0,6.79,0C6.79,0,6.79,0,6.79,0
						"/>
					<path class="st26" d="M6.79,0L6.79,0C1.85,0.21,0.2,4.17,0.29,6.79c-0.18,0-0.29,0-0.29,0C0,3.03,3.03,0,6.79,0
						C6.79,0,6.79,0,6.79,0"/>
					<path class="st26" d="M6.79,0C2.97,0.09,0.23,2.94,0.28,6.79c-0.17,0-0.28,0-0.28,0C0,3.03,3.03,0,6.79,0C6.79,0,6.79,0,6.79,0
						"/>
					<path class="st27" d="M6.79,0c-4.95,0.2-6.61,4.17-6.52,6.78c-0.16,0-0.26,0-0.26,0C0,3.03,3.03,0,6.79,0C6.79,0,6.79,0,6.79,0
						"/>
					<path class="st28" d="M6.79,0L6.79,0C2.35,0.18,0.14,3.55,0.25,6.79c-0.15,0-0.25,0-0.25,0C0,3.03,3.03,0,6.79,0
						C6.79,0,6.79,0,6.79,0"/>
					<path class="st1" d="M6.79,0L6.79,0C2.25,0.18,0.21,3.64,0.23,6.79c-0.14,0-0.23,0-0.23,0C0,3.03,3.03,0,6.79,0
						C6.79,0,6.79,0,6.79,0"/>
					<path class="st1" d="M6.79,0c-4.4,0.17-6.67,3.62-6.57,6.79c-0.13,0-0.22,0-0.22,0C0,3.03,3.03,0,6.79,0C6.79,0,6.79,0,6.79,0"
						/>
					<path class="st29" d="M6.26,0.02C2.7,0.33,0.09,3.24,0.2,6.79c-0.13,0-0.2,0-0.2,0c0-3.66,2.89-6.64,6.51-6.78c0,0,0,0,0,0
						C6.44,0.01,6.33,0.01,6.26,0.02"/>
					<path class="st30" d="M5.74,0.08C3.05,0.51,0.17,2.79,0.19,6.79c-0.12,0-0.19,0-0.19,0c0-3.53,2.69-6.43,6.13-6.75c0,0,0,0,0,0
						C6.01,0.05,5.85,0.06,5.74,0.08"/>
					<path class="st31" d="M5.74,0.08C1.8,0.77,0.09,4.04,0.17,6.79c-0.11,0-0.17,0-0.17,0c0-3.4,2.49-6.21,5.75-6.71c0,0,0,0,0,0
						C5.74,0.08,5.74,0.08,5.74,0.08"/>
					<path class="st31" d="M5.23,0.18C2.16,0.95,0.07,3.66,0.16,6.79c-0.1,0-0.16,0-0.16,0c0-3.26,2.29-5.98,5.36-6.64c0,0,0,0,0,0
						C5.32,0.16,5.27,0.17,5.23,0.18"/>
					<path class="st32" d="M4.74,0.31C1.9,1.24,0.1,3.78,0.14,6.79c-0.09,0-0.14,0-0.14,0c0-3.12,2.09-5.74,4.95-6.54c0,0,0,0,0,0
						C4.89,0.27,4.8,0.29,4.74,0.31"/>
					<path class="st32" d="M4.26,0.48c-2.58,1.06-4.2,3.53-4.13,6.3c-0.08,0-0.12,0-0.12,0c0-2.96,1.89-5.48,4.54-6.41c0,0,0,0,0,0
						C4.45,0.41,4.34,0.45,4.26,0.48"/>
					<path class="st33" d="M3.8,0.69c-1.11,0.55-3.68,2.25-3.69,6.1c-0.07,0-0.11,0-0.11,0c0-2.8,1.68-5.19,4.09-6.23c0,0,0,0,0,0
						C4,0.59,3.89,0.65,3.8,0.69"/>
					<path class="st34" d="M3.36,0.93c-2.1,1.26-3.32,3.45-3.27,5.86c-0.06,0-0.09,0-0.09,0c0-2.6,1.45-4.85,3.6-5.99c0,0,0,0,0,0
						C3.53,0.83,3.43,0.88,3.36,0.93"/>
					<path class="st35" d="M2.94,1.19C1.07,2.52,0.05,4.51,0.07,6.79c-0.05,0-0.07,0-0.07,0c0-2.35,1.19-4.42,3-5.64c0,0,0,0,0,0
						C2.98,1.16,2.96,1.18,2.94,1.19"/>
				</g>
			</g>
			<g class="st0">
				<defs>
					<path id="SVGID_13_" class="st0" d="M6.79,1c0-0.55,0-1,0-1L249.2,0c0,0,0,0.45,0,1C249.2,1,6.79,1,6.79,1z"/>
				</defs>
				<clipPath id="SVGID_14_">
					<use xlink:href="#SVGID_13_"  style="overflow:visible;"/>
				</clipPath>
				<g class="st47">
					<polyline class="st3" points="249.2,1 6.79,1 6.79,0.99 249.2,0.99 249.2,1 					"/>
					<path class="st3" d="M249.2,0.99H6.79c0-0.01,0-0.03,0-0.04H249.2C249.2,0.96,249.2,0.98,249.2,0.99"/>
					<path class="st41" d="M249.2,0.95H6.79c0-0.01,0-0.03,0-0.04H249.2C249.2,0.93,249.2,0.94,249.2,0.95"/>
					<path class="st41" d="M249.2,0.91H6.79c0-0.01,0-0.03,0-0.04H249.2C249.2,0.88,249.2,0.9,249.2,0.91"/>
					<path class="st40" d="M249.2,0.87H6.79c0-0.01,0-0.03,0-0.04H249.2C249.2,0.84,249.2,0.85,249.2,0.87"/>
					<path class="st40" d="M249.2,0.83H6.79c0-0.02,0-0.03,0-0.05H249.2C249.2,0.79,249.2,0.81,249.2,0.83"/>
					<path class="st39" d="M249.2,0.78H6.79c0-0.02,0-0.03,0-0.05H249.2C249.2,0.74,249.2,0.76,249.2,0.78"/>
					<path class="st38" d="M249.2,0.73H6.79c0-0.02,0-0.04,0-0.06H249.2C249.2,0.69,249.2,0.71,249.2,0.73"/>
					<path class="st43" d="M249.2,0.67H6.79c0-0.02,0-0.04,0-0.06H249.2C249.2,0.63,249.2,0.65,249.2,0.67"/>
					<path class="st46" d="M249.2,0.61H6.79c0-0.03,0-0.06,0-0.09H249.2C249.2,0.54,249.2,0.58,249.2,0.61"/>
					<path class="st48" d="M249.2,0.51H6.79c0-0.06,0-0.12,0-0.18H249.2C249.2,0.39,249.2,0.45,249.2,0.51"/>
					<path class="st46" d="M249.2,0.34H6.79c0-0.02,0-0.04,0-0.06H249.2C249.2,0.3,249.2,0.32,249.2,0.34"/>
					<path class="st43" d="M249.2,0.28H6.79c0-0.01,0-0.03,0-0.04H249.2C249.2,0.25,249.2,0.26,249.2,0.28"/>
					<path class="st38" d="M249.2,0.24H6.79c0-0.01,0-0.02,0-0.02H249.2C249.2,0.22,249.2,0.23,249.2,0.24"/>
					<path class="st39" d="M249.2,0.21H6.79c0-0.01,0-0.02,0-0.02H249.2C249.2,0.2,249.2,0.21,249.2,0.21"/>
					<path class="st40" d="M249.2,0.19H6.79c0-0.01,0-0.01,0-0.02H249.2C249.2,0.18,249.2,0.19,249.2,0.19"/>
					<path class="st40" d="M249.2,0.18H6.79c0-0.01,0-0.01,0-0.02H249.2C249.2,0.16,249.2,0.17,249.2,0.18"/>
					<polyline class="st41" points="249.2,0.16 6.79,0.16 6.79,0.15 249.2,0.15 249.2,0.16 					"/>
					<polyline class="st41" points="249.2,0.15 6.79,0.15 6.79,0.13 249.2,0.13 249.2,0.15 					"/>
					<polyline class="st3" points="249.2,0.13 6.79,0.13 6.79,0.12 249.2,0.12 249.2,0.13 					"/>
					<polyline class="st3" points="249.2,0.12 6.79,0.12 6.79,0.11 249.2,0.11 249.2,0.12 					"/>
					<polyline class="st4" points="249.2,0.11 6.79,0.11 6.79,0.1 249.2,0.1 249.2,0.11 					"/>
					<polyline class="st4" points="249.2,0.1 6.79,0.1 6.79,0.1 249.2,0.1 249.2,0.1 					"/>
					<polyline class="st5" points="249.2,0.1 6.79,0.1 6.79,0.09 249.2,0.09 249.2,0.1 					"/>
					<polyline class="st6" points="249.2,0.09 6.79,0.09 6.79,0.08 249.2,0.08 249.2,0.09 					"/>
					<polyline class="st7" points="249.2,0.08 6.79,0.08 6.79,0.07 249.2,0.07 249.2,0.08 					"/>
					<polyline class="st8" points="249.2,0.07 6.79,0.07 6.79,0.07 249.2,0.07 249.2,0.07 					"/>
					<polyline class="st9" points="249.2,0.07 6.79,0.07 6.79,0.06 249.2,0.06 249.2,0.07 					"/>
					<polyline class="st10" points="249.2,0.06 6.79,0.06 6.79,0.06 249.2,0.06 249.2,0.06 					"/>
					<polyline class="st11" points="249.2,0.06 6.79,0.06 6.79,0.05 249.2,0.05 249.2,0.06 					"/>
					<polyline class="st12" points="249.2,0.05 6.79,0.05 6.79,0.05 249.2,0.05 249.2,0.05 					"/>
					<polyline class="st13" points="249.2,0.05 6.79,0.05 6.79,0.04 249.2,0.04 249.2,0.05 					"/>
					<polyline class="st14" points="249.2,0.04 6.79,0.04 6.79,0.04 249.2,0.04 249.2,0.04 					"/>
					<polyline class="st15" points="249.2,0.04 6.79,0.04 6.79,0.04 249.2,0.04 249.2,0.04 					"/>
					<polyline class="st16" points="249.2,0.04 6.79,0.04 6.79,0.03 249.2,0.03 249.2,0.04 					"/>
					<polyline class="st17" points="249.2,0.03 6.79,0.03 6.79,0.03 249.2,0.03 249.2,0.03 					"/>
					<polyline class="st17" points="249.2,0.03 6.79,0.03 6.79,0.03 249.2,0.03 249.2,0.03 					"/>
					<polyline class="st18" points="249.2,0.03 6.79,0.03 6.79,0.02 249.2,0.02 249.2,0.03 					"/>
					<polyline class="st18" points="249.2,0.02 6.79,0.02 6.79,0.02 249.2,0.02 249.2,0.02 					"/>
					<polyline class="st19" points="249.2,0.02 6.79,0.02 6.79,0.02 249.2,0.02 249.2,0.02 					"/>
					<polyline class="st20" points="249.2,0.02 6.79,0.02 6.79,0.02 249.2,0.02 249.2,0.02 					"/>
					<polyline class="st21" points="249.2,0.02 6.79,0.02 6.79,0.01 249.2,0.01 249.2,0.02 					"/>
					<polyline class="st21" points="249.2,0.01 6.79,0.01 6.79,0.01 249.2,0.01 249.2,0.01 					"/>
					<polyline class="st22" points="249.2,0.01 6.79,0.01 6.79,0.01 249.2,0.01 249.2,0.01 					"/>
					<polyline class="st23" points="249.2,0.01 6.79,0.01 6.79,0.01 249.2,0.01 249.2,0.01 					"/>
					<polyline class="st24" points="249.2,0.01 6.79,0.01 6.79,0.01 249.2,0.01 249.2,0.01 					"/>
					<polyline class="st25" points="249.2,0.01 6.79,0.01 6.79,0 249.2,0 249.2,0.01 					"/>
					<polyline class="st25" points="249.2,0 6.79,0 6.79,0 249.2,0 249.2,0 					"/>
					<polyline class="st26" points="249.2,0 6.79,0 6.79,0 249.2,0 249.2,0 					"/>
					<polyline class="st26" points="249.2,0 6.79,0 6.79,0 249.2,0 249.2,0 					"/>
					<polyline class="st27" points="249.2,0 6.79,0 6.79,0 249.2,0 249.2,0 					"/>
					<polyline class="st28" points="249.2,0 6.79,0 6.79,0 249.2,0 249.2,0 					"/>
					<polyline class="st1" points="249.2,0 6.79,0 6.79,0 249.2,0 249.2,0 					"/>
					<polyline class="st1" points="249.2,0 6.79,0 6.79,0 249.2,0 249.2,0 					"/>
				</g>
			</g>
			<g class="st0">
				<defs>
					<path id="SVGID_15_" class="st0" d="M249.2,1c0-0.55,0-1,0-1c3.75,0,6.8,3.03,6.8,6.79c0,0-0.45,0-1,0
						C255,3.59,252.4,1,249.2,1z"/>
				</defs>
				<clipPath id="SVGID_16_">
					<use xlink:href="#SVGID_15_"  style="overflow:visible;"/>
				</clipPath>
				<g class="st49">
					<path class="st46" d="M249.2,1c0-0.55,0-1,0-1c3.75,0,6.8,3.03,6.8,6.79c0,0-0.45,0-1,0C255,3.59,252.4,1,249.2,1"/>
					<path class="st46" d="M255,6.79c0-3.2-2.59-5.79-5.8-5.79c0-0.18,0-0.34,0-0.48c0.07,0.01,0.16,0.03,0.23,0.05
						c3.15,0.55,5.14,2.31,5.9,5.23c0.06,0.21,0.16,0.57,0.22,0.57c0.21,0.01,0.34-2.2-1.44-4.13c-1.62-1.75-3.84-2.16-4.91-1.89
						c0-0.21,0-0.34,0-0.34c3.75,0,6.8,3.03,6.8,6.79C256,6.79,255.55,6.79,255,6.79"/>
					<path class="st43" d="M255,6.79c0-3.2-2.59-5.79-5.8-5.79c0-0.14,0-0.27,0-0.39c0.06,0.01,0.13,0.02,0.19,0.03
						c2.2,0.29,5.02,1.47,5.93,5.4c0.13,0.56,0.17,0.73,0.24,0.71c0.25-0.06,0.51-3.72-2.98-5.73c-1.04-0.6-2.37-0.89-3.38-0.73
						c0-0.17,0-0.28,0-0.28c3.75,0,6.8,3.03,6.8,6.79C256,6.79,255.55,6.79,255,6.79"/>
					<path class="st48" d="M255.43,5.85c-0.34-0.71-0.54-1.47-0.94-2.15c-0.22-0.38-0.68-0.97-1.13-1.38
						c-0.37-0.34-1.37-1.23-3.19-1.67c-0.61-0.15-0.71-0.18-0.73-0.21c-0.01-0.02,0-0.05,0.01-0.06c0.17-0.18,2.35-0.14,3.94,1.19
						c1.99,1.67,2.21,3.47,2.23,3.97c0.01,0.28-0.02,0.4-0.04,0.42c-0.01,0.01-0.04,0.02-0.06,0.02
						C255.47,5.97,255.45,5.89,255.43,5.85"/>
					<path class="st38" d="M255.67,6.79c-0.01-0.01,0.01-0.03,0.01-0.04c0.27-1.15-0.29-3.24-1.56-4.53
						c-1.45-1.47-3.11-2.14-4.92-1.98c0-0.15,0-0.24,0-0.24c3.75,0,6.8,3.03,6.8,6.79C256,6.79,255.87,6.79,255.67,6.79"/>
					<path class="st50" d="M255.45,5.59c-0.04-0.03-0.09-0.17-0.26-0.59c-0.5-1.25-1.2-2.23-2.15-3c-0.29-0.23-1.16-0.94-2.83-1.4
						c-0.42-0.12-0.4-0.17-0.39-0.19c0.09-0.26,3.82,0.06,5.33,3.44c0.46,1.04,0.42,1.74,0.36,1.77
						C255.5,5.62,255.47,5.6,255.45,5.59"/>
					<path class="st39" d="M255.72,6.79c-0.02-0.02,0.01-0.06,0.01-0.09c0.2-1.43-0.49-3.36-1.6-4.48c-1.44-1.45-3.09-2.12-4.92-2
						c0-0.13,0-0.21,0-0.21c3.75,0,6.8,3.03,6.8,6.79C256,6.79,255.89,6.79,255.72,6.79"/>
					<path class="st40" d="M255.75,6.79c0.3-3.65-2.82-6.79-6.55-6.59c0-0.12,0-0.19,0-0.19c3.75,0,6.8,3.03,6.8,6.79
						C256,6.79,255.9,6.79,255.75,6.79"/>
					<path class="st40" d="M255.78,6.79c0.19-4.16-3.25-6.77-6.57-6.61c0-0.11,0-0.17,0-0.17c3.75,0,6.8,3.03,6.8,6.79
						C256,6.79,255.91,6.79,255.78,6.79"/>
					<path class="st41" d="M255.8,6.79c-0.07-0.07,0.01-0.24,0.02-0.34c0.07-1.42-0.64-3.2-1.68-4.24
						c-1.45-1.45-3.11-2.14-4.93-2.04c0-0.1,0-0.16,0-0.16c3.75,0,6.8,3.03,6.8,6.79C256,6.79,255.92,6.79,255.8,6.79"/>
					<path class="st50" d="M255.36,5.18c-0.04-0.05-0.14-0.28-0.32-0.66c-0.18-0.39-0.71-1.4-1.63-2.25c-0.77-0.7-1.7-1.24-2.76-1.6
						c-0.33-0.11-0.36-0.13-0.45-0.22c0.3-0.14,2,0.04,3.55,1.45c1.39,1.27,1.82,2.94,1.7,3.35C255.41,5.23,255.38,5.2,255.36,5.18"
						/>
					<path class="st41" d="M255.81,6.79c-0.02-0.02,0-0.06,0.01-0.08c0.14-2.09-0.99-3.81-1.68-4.5c-0.53-0.53-2.15-2.15-4.94-2.05
						c0-0.09,0-0.15,0-0.15c3.75,0,6.8,3.03,6.8,6.79C256,6.79,255.93,6.79,255.81,6.79"/>
					<path class="st3" d="M255.83,6.79c-0.09-0.1,0.01-0.31,0.01-0.44c0.03-1.39-0.68-3.13-1.7-4.14c-0.53-0.54-2.16-2.16-4.94-2.06
						c0-0.08,0-0.13,0-0.13c3.75,0,6.8,3.03,6.8,6.79C256,6.79,255.93,6.79,255.83,6.79"/>
					<path class="st3" d="M255.84,6.79c-0.07-0.07,0.01-0.22,0.01-0.31c0.04-1.47-0.66-3.23-1.71-4.28
						c-0.53-0.54-2.16-2.17-4.94-2.07c0-0.08,0-0.12,0-0.12c3.75,0,6.8,3.03,6.8,6.79C256,6.79,255.94,6.79,255.84,6.79"/>
					<path class="st4" d="M255.86,6.79c-0.01-0.01,0-0.05,0-0.06c0.1-2.12-1.03-3.85-1.71-4.53c-0.98-0.98-2.43-2.11-4.95-2.08
						c0-0.07,0-0.11,0-0.11c3.75,0,6.8,3.03,6.8,6.79C256,6.79,255.94,6.79,255.86,6.79"/>
					<path class="st4" d="M255.87,6.79c-0.1-0.1,0-0.33,0-0.47c0.01-1.38-0.72-3.12-1.72-4.13c-0.54-0.54-2.16-2.17-4.95-2.09
						c0-0.07,0-0.1,0-0.1c3.75,0,6.8,3.03,6.8,6.79C256,6.79,255.95,6.79,255.87,6.79"/>
					<path class="st51" d="M255.32,4.85c-0.09-0.11-0.18-0.29-0.25-0.41c-0.31-0.56-0.78-1.41-1.63-2.2
						c-0.48-0.44-1.22-1.03-2.64-1.6c-0.12-0.05-0.19-0.11-0.19-0.12c-0.01-0.17,1.65,0.01,3.13,1.39c1.45,1.34,1.76,2.94,1.6,2.95
						C255.32,4.86,255.32,4.85,255.32,4.85"/>
					<path class="st5" d="M255.88,6.79c-0.1-0.1,0-0.32,0-0.45c0.01-1.39-0.72-3.14-1.73-4.15c-0.53-0.54-2.16-2.17-4.95-2.09
						c0-0.06,0-0.1,0-0.1c3.75,0,6.8,3.03,6.8,6.79C256,6.79,255.95,6.79,255.88,6.79"/>
					<path class="st6" d="M255.89,6.79c-0.04-0.05,0-0.15,0-0.21c0.04-1.79-0.84-3.49-1.74-4.39c-0.54-0.54-2.16-2.17-4.95-2.1
						c0-0.06,0-0.09,0-0.09c3.75,0,6.8,3.03,6.8,6.79C256,6.79,255.96,6.79,255.89,6.79"/>
					<path class="st7" d="M255.9,6.79c-0.1-0.1,0-0.34,0-0.49c-0.01-2.5-2.15-6.2-6.69-6.21c0-0.05,0-0.08,0-0.08
						c3.75,0,6.8,3.03,6.8,6.79C256,6.79,255.96,6.79,255.9,6.79"/>
					<path class="st8" d="M255.9,6.79L255.9,6.79c-0.03-4.26-3.43-6.76-6.7-6.71c0-0.05,0-0.07,0-0.07c3.75,0,6.8,3.03,6.8,6.79
						C256,6.79,255.96,6.79,255.9,6.79"/>
					<path class="st9" d="M255.91,6.79c-0.1-0.1,0-0.34,0-0.49c-0.02-3.01-2.78-6.3-6.71-6.23c0-0.04,0-0.07,0-0.07
						c3.75,0,6.8,3.03,6.8,6.79C256,6.79,255.97,6.79,255.91,6.79"/>
					<path class="st51" d="M255.18,4.43c-0.03-0.01-0.21-0.31-0.29-0.43c-0.54-0.89-1.08-1.47-1.43-1.79
						c-0.55-0.5-1.19-0.94-1.9-1.29c-0.26-0.13-0.5-0.25-0.51-0.28c-0.01-0.02,0-0.04,0.01-0.05c0.04-0.03,1.31,0.09,2.67,1.34
						c1.23,1.13,1.55,2.43,1.51,2.49C255.22,4.43,255.19,4.44,255.18,4.43"/>
					<path class="st10" d="M255.92,6.79c-0.06-0.06,0-0.2,0-0.28c0.01-1.5-0.71-3.28-1.76-4.33c-0.54-0.54-2.17-2.17-4.96-2.11
						c0-0.04,0-0.06,0-0.06c3.75,0,6.8,3.03,6.8,6.79C256,6.79,255.97,6.79,255.92,6.79"/>
					<path class="st38" d="M255,6.79c0-3.2-2.59-5.79-5.8-5.79c0-0.12,0-0.23,0-0.33c0.11,0.01,0.26,0.03,0.37,0.04
						c3.23,0.4,5.19,2.44,5.82,6.08C255.27,6.79,255.14,6.79,255,6.79"/>
					<path class="st11" d="M255.92,6.79c-0.01-0.01,0-0.03,0-0.04c0.06-2.67-1.57-4.38-1.76-4.57c-0.54-0.54-2.17-2.17-4.96-2.12
						c0-0.04,0-0.06,0-0.06c3.75,0,6.8,3.03,6.8,6.79C256,6.79,255.97,6.79,255.92,6.79"/>
					<path class="st12" d="M255.93,6.79c-0.06-3.86-2.89-6.7-6.73-6.73c0-0.03,0-0.05,0-0.05c3.75,0,6.8,3.03,6.8,6.79
						C256,6.79,255.97,6.79,255.93,6.79"/>
					<path class="st13" d="M255.93,6.79c-0.11-0.11-0.01-0.35-0.01-0.51c-0.04-2.64-2.4-6.27-6.73-6.23c0-0.03,0-0.05,0-0.05
						c3.75,0,6.8,3.03,6.8,6.79C256,6.79,255.97,6.79,255.93,6.79"/>
					<path class="st39" d="M255,6.79c0-3.2-2.59-5.79-5.8-5.79c0-0.09,0-0.19,0-0.27c0.14,0.01,0.33,0.03,0.47,0.04
						c3.27,0.52,5.28,2.66,5.64,6.02C255.21,6.79,255.11,6.79,255,6.79"/>
					<path class="st14" d="M255.94,6.79c-0.07-4.28-3.48-6.79-6.74-6.74c0-0.03,0-0.04,0-0.04c3.75,0,6.8,3.03,6.8,6.79
						C256,6.79,255.98,6.79,255.94,6.79"/>
					<path class="st15" d="M255.94,6.79c-0.05-0.05,0-0.18,0-0.25c0-1.79-0.89-3.48-1.77-4.36C253.63,1.63,252,0,249.2,0.04
						c0-0.03,0-0.04,0-0.04c3.75,0,6.8,3.03,6.8,6.79C256,6.79,255.98,6.79,255.94,6.79"/>
					<path class="st16" d="M255.95,6.79c-0.11-0.11-0.01-0.37-0.01-0.52c-0.06-2.99-2.85-6.28-6.74-6.23c0-0.02,0-0.04,0-0.04
						c3.75,0,6.8,3.03,6.8,6.79C256,6.79,255.98,6.79,255.95,6.79"/>
					<path class="st52" d="M254.98,3.96c-0.1-0.07-0.18-0.23-0.25-0.33c-0.5-0.72-0.96-1.23-1.58-1.75
						c-0.27-0.22-0.82-0.6-1.13-0.78c-0.46-0.26-0.46-0.26-0.51-0.36c1.3,0.12,3.32,1.97,3.54,3.25
						C255.02,3.98,254.99,3.97,254.98,3.96"/>
					<path class="st40" d="M255,6.79c0-3.2-2.59-5.79-5.8-5.79c0-0.08,0-0.15,0-0.22c0.14,0.01,0.33,0.02,0.47,0.03
						c3.25,0.48,5.28,2.65,5.58,5.97C255.17,6.79,255.08,6.79,255,6.79"/>
					<path class="st17" d="M255.95,6.79c-0.11-0.11-0.01-0.36-0.01-0.51c-0.04-1.98-1.75-6.11-6.74-6.24c3.75-0.03,6.8,3,6.8,6.75
						C256,6.79,255.98,6.79,255.95,6.79"/>
					<path class="st17" d="M255.96,6.79c-0.11-0.11-0.01-0.36-0.01-0.52c-0.06-2.6-2.44-6.22-6.74-6.24c3.75-0.03,6.8,3,6.8,6.76
						C256,6.79,255.98,6.79,255.96,6.79"/>
					<path class="st18" d="M255.96,6.79c-0.11-0.11-0.01-0.36-0.01-0.52c-0.07-2.99-2.86-6.29-6.75-6.24C252.95,0,256,3.03,256,6.79
						C256,6.79,255.98,6.79,255.96,6.79"/>
					<path class="st40" d="M255,6.79c0-3.2-2.59-5.79-5.8-5.79c0-0.06,0-0.12,0-0.17c0.14,0.01,0.33,0.02,0.47,0.03
						c2.48,0.31,5.23,2.04,5.53,5.93C255.13,6.79,255.06,6.79,255,6.79"/>
					<path class="st18" d="M255.97,6.79c-0.07-0.07,0-0.24,0-0.34c-0.02-1.49-0.75-3.24-1.79-4.28C253.64,1.63,252,0,249.2,0.02
						C252.95,0,256,3.03,256,6.79C256,6.79,255.99,6.79,255.97,6.79"/>
					<path class="st19" d="M255.97,6.79c-0.02-0.02,0-0.06,0-0.09c0.02-2.64-1.61-4.35-1.79-4.53c-0.54-0.54-2.17-2.17-4.98-2.15
						C252.95,0,256,3.03,256,6.79C256,6.79,255.99,6.79,255.97,6.79"/>
					<path class="st20" d="M255.97,6.79c-0.11-0.11-0.01-0.36-0.01-0.52c-0.08-2.98-2.87-6.28-6.76-6.25C252.95,0,256,3.03,256,6.79
						C256,6.79,255.99,6.79,255.97,6.79"/>
					<path class="st41" d="M255,6.79c0-3.2-2.59-5.79-5.8-5.79c0-0.04,0-0.09,0-0.13c0,0,0,0,0,0c3.4,0.19,5.73,2.51,5.94,5.92
						C255.09,6.79,255.05,6.79,255,6.79"/>
					<path class="st53" d="M254.63,3.36c-0.39-0.39-0.7-0.84-1.11-1.22c-0.49-0.45-1.06-0.84-1.09-0.86
						c-0.32-0.22-0.32-0.22-0.41-0.32c0.76,0.11,2.41,1.4,2.74,2.51C254.73,3.44,254.67,3.4,254.63,3.36"/>
					<path class="st21" d="M255.97,6.79c-0.11-0.11-0.01-0.37-0.01-0.52c-0.06-1.98-1.78-6.12-6.76-6.25C252.95,0,256,3.03,256,6.79
						C256,6.79,255.99,6.79,255.97,6.79"/>
					<path class="st21" d="M255.98,6.79c-0.11-0.11-0.01-0.37-0.01-0.52c-0.07-2.61-2.47-6.23-6.76-6.25C252.95,0,256,3.03,256,6.79
						C256,6.79,255.99,6.79,255.98,6.79"/>
					<path class="st41" d="M255,6.79c0-3.2-2.59-5.79-5.8-5.79c0-0.03,0-0.06,0-0.09c0.14,0.01,0.32,0.02,0.46,0.02
						c3.18,0.4,5.26,2.64,5.43,5.85C255.06,6.79,255.03,6.79,255,6.79"/>
					<path class="st22" d="M255.98,6.79c-0.11-0.1-0.01-0.34-0.01-0.49c-0.04-1.4-0.79-3.13-1.79-4.13
						c-0.54-0.54-2.17-2.17-4.98-2.15C252.95,0,256,3.03,256,6.79C256,6.79,255.99,6.79,255.98,6.79"/>
					<path class="st23" d="M255.98,6.79c-0.05-0.05,0-0.16,0-0.22c-0.02-2.45-1.88-6.39-6.78-6.55C252.95,0,256,3.03,256,6.79
						C256,6.79,255.99,6.79,255.98,6.79"/>
					<path class="st24" d="M255.98,6.79c-0.11-0.11-0.01-0.37-0.02-0.52c-0.06-1.97-1.8-6.09-6.77-6.25C252.95,0,256,3.03,256,6.79
						C256,6.79,255.99,6.79,255.98,6.79"/>
					<path class="st3" d="M255,6.79c0-3.2-2.59-5.79-5.8-5.79c0-0.02,0-0.03,0-0.05c0.14,0.01,0.32,0.01,0.46,0.02
						c3.18,0.39,5.25,2.62,5.39,5.81C255.03,6.79,255.01,6.79,255,6.79"/>
					<path class="st54" d="M254.25,2.75c-0.09-0.08-0.19-0.19-0.28-0.27c-0.4-0.37-0.8-0.72-1.2-1.09c0.49,0.16,1.33,0.94,1.52,1.4
						C254.28,2.77,254.26,2.76,254.25,2.75"/>
					<path class="st25" d="M255.99,6.79c-0.11-0.11-0.01-0.37-0.02-0.53c-0.01-0.18-0.09-1.76-1.19-3.36
						C255.54,4,256,5.34,255.99,6.79C256,6.79,255.99,6.79,255.99,6.79"/>
					<path class="st25" d="M255.99,6.79c-0.04-1.18-0.18-2.01-0.83-3.27C255.69,4.49,256,5.6,255.99,6.79
						C256,6.79,255.99,6.79,255.99,6.79"/>
					<path class="st25" d="M252.19,0.69c-1.28-0.62-2.31-0.66-2.99-0.68c1.24-0.01,2.4,0.32,3.4,0.9c0,0,0,0,0,0
						C252.48,0.84,252.31,0.75,252.19,0.69"/>
					<path class="st26" d="M255.99,6.79c-0.03-0.74-0.05-1.51-0.58-2.76C255.79,4.87,256,5.8,255.99,6.79
						C256,6.79,255.99,6.79,255.99,6.79"/>
					<path class="st25" d="M251.73,0.48c-0.88-0.31-1.38-0.45-2.53-0.48c0.98,0,1.91,0.2,2.75,0.57
						C251.89,0.55,251.8,0.51,251.73,0.48"/>
					<path class="st26" d="M255.99,6.79c-0.07-0.07,0-0.23-0.01-0.33c-0.01-0.58-0.14-1.24-0.39-1.98
						C255.85,5.2,256,5.97,255.99,6.79C256,6.79,255.99,6.79,255.99,6.79"/>
					<path class="st3" d="M255,6.79c0-3.2-2.59-5.79-5.8-5.79c0.14,0,0.32,0.01,0.45,0.01c3.13,0.37,5.23,2.63,5.35,5.78
						C255,6.79,255,6.79,255,6.79"/>
					<path class="st26" d="M251.25,0.31C250.92,0.21,250.23,0,249.2,0c0.78,0,1.53,0.13,2.22,0.37c0,0,0,0,0,0
						C251.37,0.35,251.3,0.33,251.25,0.31"/>
					<path class="st27" d="M255.99,6.79L255.99,6.79c0,0-0.01-0.37-0.02-0.53c-0.01-0.16-0.04-0.36-0.06-0.52
						c-0.04-0.26-0.12-0.59-0.18-0.84C255.9,5.5,256,6.13,255.99,6.79C256,6.79,255.99,6.79,255.99,6.79"/>
					<path class="st26" d="M250.76,0.18c-0.77-0.15-0.77-0.15-1.56-0.18c0.61,0,1.2,0.08,1.76,0.23
						C250.9,0.21,250.82,0.19,250.76,0.18"/>
					<path class="st28" d="M255.99,6.79c-0.11-0.11-0.01-0.37-0.02-0.53c-0.01-0.29-0.09-0.67-0.14-0.96
						C255.94,5.78,256,6.28,255.99,6.79C256,6.79,256,6.79,255.99,6.79"/>
					<path class="st27" d="M250.25,0.08c-0.31-0.04-0.73-0.07-1.05-0.08c0.45,0,0.9,0.04,1.33,0.13
						C250.44,0.11,250.33,0.09,250.25,0.08"/>
					<path class="st1" d="M255.99,6.79c-0.11-0.11-0.01-0.37-0.02-0.53c-0.01-0.17-0.04-0.4-0.07-0.57
						C255.97,6.05,256,6.41,255.99,6.79C256,6.79,256,6.79,255.99,6.79"/>
					<path class="st28" d="M249.73,0.02L249.2,0c0.31,0,0.61,0.02,0.91,0.06C250,0.05,249.85,0.03,249.73,0.02"/>
					<path class="st1" d="M256,6.79c-0.15-0.15-0.02-0.5-0.04-0.71C255.98,6.31,256,6.54,256,6.79C256,6.79,256,6.79,256,6.79"/>
					<path class="st1" d="M249.2,0c0.17,0,0.34,0.01,0.51,0.02c0,0,0,0,0,0L249.2,0"/>
					<path class="st29" d="M256,6.79c-0.07-0.07-0.01-0.23-0.01-0.33C255.99,6.57,256,6.68,256,6.79C256,6.79,256,6.79,256,6.79"/>
					<path class="st1" d="M249.2,0c0.04,0,0.08,0,0.12,0C249.28,0,249.23,0.03,249.2,0"/>
				</g>
			</g>
		</g>
	</g>
</g>
<g>
	<path class="st55" d="M58.19,146.62h68.41c1.4,0,2.54,1.14,2.54,2.54v23.19c0,2.03,2.27,3.24,3.96,2.11l65.96-44.37
		c1.5-1.01,1.5-3.21,0-4.22l-65.96-44.36c-1.69-1.14-3.96,0.07-3.96,2.11v24.35c0,1.4-1.14,2.54-2.54,2.54H58.19
		c-1.4,0-2.54,1.14-2.54,2.54v31.01C55.65,145.48,56.79,146.62,58.19,146.62z"/>
</g>
</svg>
