<?xml version="1.0" standalone="no"?><!DOCTYPE svg PUBLIC "-//W3C//DTD SVG 1.1//EN" "http://www.w3.org/Graphics/SVG/1.1/DTD/svg11.dtd"><svg width="100%" height="100%" viewBox="0 0 1024 1024" version="1.1" xmlns="http://www.w3.org/2000/svg" xmlns:xlink="http://www.w3.org/1999/xlink" xml:space="preserve" style="fill-rule:evenodd;clip-rule:evenodd;stroke-linejoin:round;stroke-miterlimit:1.41421;"><g><circle cx="512" cy="512" r="512" style="fill:#fff;"/><g><path d="M398.984,244.1c0,0 0.174,91.476 17.946,146.787c16.116,50.148 52.279,92.05 95.616,119.113c43.337,-27.063 78.408,-68.965 94.521,-119.113c17.775,-55.311 17.949,-146.787 17.949,-146.787l-226.032,0Z" style="fill:#231f20;fill-rule:nonzero;"/><path d="M512.546,505.577c-43.878,-28.02 -77.363,-70.116 -92.054,-115.835c-15.377,-47.846 -17.451,-124.193 -17.729,-141.905l218.47,0c-0.277,17.715 -2.355,94.072 -17.725,141.905c-15.08,46.929 -47.338,87.98 -90.962,115.835Z" style="fill:#ffd51f;fill-rule:nonzero;"/><path d="M439.675,376.295c0.373,-0.373 2.035,-2.075 3.569,-3.302c9.341,-7.507 25.876,-22.617 45.049,-20.634c17.696,1.83 24.629,15.169 24.629,15.169c-7.824,8.434 -12.989,21.192 -13.378,31.529c-0.389,10.337 2.823,73.863 2.823,73.863c0,0 0.492,16.805 0.891,26.614c3.044,2.157 6.131,4.265 9.288,6.28c2.576,-1.645 5.109,-3.344 7.606,-5.082l1.494,-70.605c0.785,-11.735 -1.24,-27.389 8.345,-37.149c0.64,-0.653 3.562,-3.13 3.562,-3.13c0,0 2.932,2.496 3.82,3.07c0.442,0.284 1.015,0.238 1.411,-0.108l22.366,-19.253c0.393,-0.34 0.624,-0.884 0.423,-1.362c-0.726,-1.715 -2.016,-4.09 -2.016,-4.09c0,0 18.019,-17.735 29.349,-25.625c1.102,-0.765 0.379,-2.236 -0.966,-1.659c-5.519,2.361 -11.667,1.524 -14.998,-1.808c-1.438,-1.441 -2.101,-3.595 -3.866,-2.421c-13.183,8.784 -24.038,12.161 -24.038,12.161c-4.011,-3.407 -6.495,-6.913 -8.8,-10.986c-10.842,-22.113 -5.419,-50.884 10.222,-69.022c4.789,-5.63 9.558,-9.351 15.376,-12.741c0.7,-0.406 0.805,-1.692 -0.692,-1.603c-49.146,2.846 -92.829,35.279 -112.263,80.235c-5.627,13.016 -10.027,27.776 -10.637,40.362c-0.069,1.392 0.297,2.431 1.431,1.297Z" style="fill:#231f20;fill-rule:nonzero;"/><path d="M563.674,346.827c1.711,-0.307 3.7,-0.208 4.327,0.452c1.032,1.085 -1.382,4.578 -2.675,6.758c-3.081,5.185 -3.331,5.614 -6.402,10.354c0,0 -0.303,-2.286 0.327,-4.496c0.702,-2.474 2.045,-4.759 3.008,-6.224c1.184,-1.804 2.421,-3.041 2.219,-3.859c-0.214,-0.874 -3.595,0.267 -4.957,0.449c-1.547,0.204 -5.403,1.59 -8.734,-0.353c0,0 9.008,-2.391 12.887,-3.081Z" style="fill:#ffd51f;fill-rule:nonzero;"/><path d="M511.998,390.962c1.323,-0.484 7.524,-4.452 12.57,-3.911c3.582,0.386 5.542,1.814 5.542,1.814c-3.638,0.3 -6.736,-0.208 -12.666,2.757c-2.985,1.494 -6.748,4.509 -8.757,2.388c-1.389,-1.468 -1.339,-4.39 0.013,-10.624c1.484,-6.857 4.294,-11.191 4.294,-11.191c0,0 0.169,2.553 -2.18,15.515c-0.409,2.256 -0.399,3.833 1.184,3.252Z" style="fill:#ffd51f;fill-rule:nonzero;"/><path d="M504.923,467.3c0,0 -0.547,4.772 3.203,9.327c3.747,4.555 9.265,10.219 9.265,10.219c0,0 0.963,-3.892 -2.952,-8.649c-3.912,-4.759 -9.516,-10.897 -9.516,-10.897Z" style="fill:#ffd51f;fill-rule:nonzero;"/><path d="M503.462,433.086c0,0 -0.313,4.947 3.783,9.436c4.1,4.493 10.631,10.74 10.631,10.74c0,0 0.785,-4.057 -3.493,-8.751c-4.278,-4.693 -10.921,-11.425 -10.921,-11.425Z" style="fill:#ffd51f;fill-rule:nonzero;"/><path d="M502.793,398.968c0,0 -0.686,4.739 3.562,9.845c4.248,5.106 12.468,14.902 12.468,14.902c0,0 0.795,-4.812 -3.642,-10.149c-4.436,-5.333 -12.388,-14.598 -12.388,-14.598Z" style="fill:#ffd51f;fill-rule:nonzero;"/></g><g><path d="M248.349,689.927l0,5.188l-5.844,0l0,4.846l5.844,0l0,34.742l6.313,0l0,-34.742l10.161,0l0,-4.846l-10.161,0l0,-5.121c0,-4.385 2.255,-8.161 7.771,-8.161c1.527,0 3.056,0.198 4.315,0.529l0.401,-4.317c-1.462,-0.466 -3.785,-0.794 -5.847,-0.794c-9.097,0 -12.953,6.032 -12.953,12.676Z" style="fill:#231f20;fill-rule:nonzero;"/><path d="M424.724,705.209c0,-3.253 2.986,-5.315 7.705,-5.315c3.187,0 6.972,0.733 10.292,2.129l0.533,-5.315c-3.19,-1.463 -6.842,-2.256 -10.694,-2.256c-9.101,0 -13.817,4.381 -13.817,11.089c0,13.351 20.26,9.167 20.26,18.134c0,3.722 -2.393,6.51 -8.17,6.51c-3.786,0 -8.301,-1.195 -11.293,-3.454l-0.797,5.445c3.056,2.196 7.441,3.324 12.157,3.324c9.763,0 13.947,-4.984 13.947,-12.421c0,-13.817 -20.123,-9.435 -20.123,-17.87Z" style="fill:#231f20;fill-rule:nonzero;"/><path d="M510.04,730.252c-7.768,0 -10.757,-3.853 -10.757,-15.213c0,-11.356 2.989,-15.212 10.757,-15.212c7.642,0 10.564,3.856 10.564,15.212c0,11.293 -2.922,15.213 -10.564,15.213ZM510.04,694.452c-11.888,0 -17.267,5.911 -17.267,20.587c0,14.681 5.312,20.528 17.267,20.528c11.892,0 17.007,-5.847 17.007,-20.528c0,-14.676 -5.048,-20.587 -17.007,-20.587Z" style="fill:#231f20;fill-rule:nonzero;"/><path d="M576.288,694.452c-4.85,0 -8.903,1.991 -11.159,6.108l-0.134,0c-1.861,-4.053 -5.378,-6.045 -10.694,-6.045c-3.986,0 -7.835,1.727 -10.228,4.649l-0.198,0l-1.131,-4.25l-4.515,0.331l0,39.458l6.309,0l0,-30.023c1.593,-2.657 4.981,-4.451 8.301,-4.451c4.384,0 7.775,2.125 7.775,7.504l0,26.97l6.242,0l0,-26.97c0,-4.984 3.588,-7.437 7.839,-7.437c5.114,0 8.234,2.52 8.234,8.1l0,26.307l6.245,0l0,-26.374c0,-9.362 -5.248,-13.877 -12.886,-13.877Z" style="fill:#231f20;fill-rule:nonzero;"/><path d="M639.868,694.452c-4.849,0 -8.903,1.991 -11.159,6.108l-0.13,0c-1.864,-4.053 -5.382,-6.045 -10.697,-6.045c-3.987,0 -7.836,1.727 -10.229,4.649l-0.197,0l-1.132,-4.25l-4.515,0.331l0,39.458l6.309,0l0,-30.023c1.594,-2.657 4.984,-4.451 8.304,-4.451c4.382,0 7.772,2.125 7.772,7.504l0,26.97l6.242,0l0,-26.97c0,-4.984 3.588,-7.437 7.839,-7.437c5.114,0 8.234,2.52 8.234,8.1l0,26.307l6.246,0l0,-26.374c0,-9.362 -5.249,-13.877 -12.887,-13.877Z" style="fill:#231f20;fill-rule:nonzero;"/><path d="M689.391,721.549c0,5.382 -3.119,8.104 -9.1,8.104c-6.112,0 -9.165,-2.792 -9.165,-8.104l0,-26.434l-6.245,0l0,26.568c0,8.703 4.98,13.75 15.343,13.75c10.429,0 15.409,-4.984 15.409,-13.75l0,-26.568l-6.242,0l0,26.434Z" style="fill:#231f20;fill-rule:nonzero;"/><path d="M725.445,694.385c-4.451,0 -8.769,1.727 -11.49,4.712l-0.201,0l-1.061,-4.183l-4.518,0.331l0,39.458l6.309,0l0,-30.023c1.861,-2.858 5.844,-4.451 9.234,-4.451c5.844,0 8.967,2.457 8.967,8.304l0,26.17l6.246,0l0,-26.17c0,-9.436 -5.118,-14.148 -13.486,-14.148Z" style="fill:#231f20;fill-rule:nonzero;"/><path d="M755.857,711.455c0.394,-7.839 3.383,-11.561 10.094,-11.561c5.714,0 9.633,3.19 9.764,11.561l-19.858,0ZM781.495,712.713c0,-12.682 -6.179,-18.261 -15.611,-18.261c-10.894,0 -16.34,6.972 -16.34,19.393c0,14.814 5.379,21.655 18.399,21.655c4.783,0 8.903,-1.128 12.223,-2.922l-0.733,-5.315c-3.387,1.66 -6.771,2.523 -10.757,2.523c-8.502,0 -12.358,-3.588 -12.689,-14.014l25.374,0c0.067,-0.863 0.134,-2.061 0.134,-3.059Z" style="fill:#231f20;fill-rule:nonzero;"/><path d="M486.762,695.115l-7.374,0l-11.688,15.607l-6.044,0l0,-32.718l-6.246,0l0,56.699l6.246,0l0,-18.666l6.108,0l12.156,18.666l7.374,0l-14.081,-21.521l13.549,-18.067Z" style="fill:#231f20;fill-rule:nonzero;"/><path d="M371.028,695.115l-7.37,0l-11.688,15.607l-6.045,0l0,-32.718l-6.245,0l0,56.699l6.245,0l0,-18.666l6.108,0l12.157,18.666l7.373,0l-14.084,-21.521l13.549,-18.067Z" style="fill:#231f20;fill-rule:nonzero;"/><rect x="319.758" y="678.004" width="6.246" height="56.699" style="fill:#231f20;fill-rule:nonzero;"/><path d="M304.081,695.115l-11.752,31.492l-11.641,-31.492l-6.784,0l15.262,38.751c0,0 -1.57,6.116 -7.159,6.116l-4.863,0l0,5.345l5.927,0c5.777,0 9.824,-3.802 12.287,-10.162c2.46,-6.359 15.5,-40.05 15.5,-40.05l-6.777,0Z" style="fill:#231f20;fill-rule:nonzero;"/><path d="M383.763,711.455c0.399,-7.839 3.388,-11.561 10.095,-11.561c5.713,0 9.633,3.19 9.767,11.561l-19.862,0ZM409.402,712.713c0,-12.682 -6.179,-18.261 -15.608,-18.261c-10.894,0 -16.343,6.972 -16.343,19.393c0,14.814 5.382,21.655 18.399,21.655c4.786,0 8.903,-1.128 12.223,-2.922l-0.733,-5.315c-3.384,1.66 -6.771,2.523 -10.757,2.523c-8.502,0 -12.354,-3.588 -12.686,-14.014l25.374,0c0.064,-0.863 0.131,-2.061 0.131,-3.059Z" style="fill:#231f20;fill-rule:nonzero;"/><path d="M201.648,567.773l0,14.744l22.151,0l0,65.655l16.423,0l0,-65.655l21.796,0l0,-14.744l-60.37,0Z" style="fill:#231f20;fill-rule:nonzero;"/><path d="M531.756,618.471l-2.289,6.132l-22.513,-56.284l-0.221,-0.546l-17.612,0l0,80.399l14.54,0l0,-46.292l-0.054,-4.271l20.089,50.563l11.039,0l18.68,-46.6l1.573,-4.117l-0.111,4.435l0,46.282l14.958,0l0,-80.399l-17.502,0l-20.577,50.698Z" style="fill:#231f20;fill-rule:nonzero;"/><path d="M623.431,581.891l1.557,5.78l9.097,29.602l-21.552,0l9.195,-29.608l1.703,-5.774ZM614.297,567.773l-28.62,80.399l17.294,0l5.245,-16.885l30.173,0l5.141,16.885l18.138,0l-28.835,-80.399l-18.536,0Z" style="fill:#231f20;fill-rule:nonzero;"/><path d="M717.67,592.766c0,8.601 -2.982,11.503 -11.821,11.503l-12.13,0l0,-22.378l12.551,0c8.418,0 11.4,2.845 11.4,10.875ZM734.409,592.24c0,-16.464 -9.238,-24.467 -28.243,-24.467l-28.667,0l0,80.399l16.22,0l0,-30.94l12.016,0l15.52,30.94l19.028,0l-19.584,-34.096c8.853,-2.637 13.71,-10.339 13.71,-21.836Z" style="fill:#231f20;fill-rule:nonzero;"/><path d="M795.265,605.993l25.762,-38.22l-18.988,0l-21.183,32.092l-8.729,0l0,-32.092l-16.217,0l0,80.399l16.217,0l0,-34.504l8.404,0l21.876,34.103l0.255,0.401l19.69,0l-27.087,-42.179Z" style="fill:#231f20;fill-rule:nonzero;"/><path d="M329.99,633.529l-35.117,0l0,-20.072l30.625,0l0,-13.592l-30.625,0l0,-17.241l33.648,0l0,-14.851l-49.861,0l0,80.399l51.33,0l0,-14.643Z" style="fill:#231f20;fill-rule:nonzero;"/><path d="M366.125,633.529l0,-65.756l-16.217,0l0,80.399l51.334,0l0,-14.643l-35.117,0Z" style="fill:#231f20;fill-rule:nonzero;"/><path d="M468.855,633.529l-35.117,0l0,-20.072l30.625,0l0,-13.592l-30.625,0l0,-17.241l33.648,0l0,-14.851l-49.861,0l0,80.399l51.33,0l0,-14.643Z" style="fill:#231f20;fill-rule:nonzero;"/></g></g></svg>