<?xml version="1.0" encoding="utf-8"?>
<!-- Generator: Adobe Illustrator 19.1.0, SVG Export Plug-In . SVG Version: 6.00 Build 0)  -->
<svg version="1.1" id="Layer_1" xmlns="http://www.w3.org/2000/svg" xmlns:xlink="http://www.w3.org/1999/xlink" x="0px" y="0px"
	 viewBox="0 0 128 128" style="enable-background:new 0 0 128 128;" xml:space="preserve">
<style type="text/css">
	.st0{fill:#222221;}
	.st1{fill:#8CBFAA;}
	.st2{fill:#89C2AC;}
	.st3{fill:none;stroke:#222221;stroke-width:2.875;}
	.st4{fill:#FFFFFF;}
	.st5{fill:#89C2AC;stroke:#222221;stroke-width:2.875;}
	.st6{fill:#E6E6E6;}
	.st7{fill:#CCCCCC;}
	.st8{fill:#FFFFFF;stroke:#222221;stroke-width:2.875;}
</style>
<g>
	<g>
		<path class="st2" d="M17.11,95.91l41.88-72.53c2.12-3.68,7.43-3.68,9.55,0l41.88,72.53c2.12,3.68-0.53,8.27-4.77,8.27H21.89
			C17.64,104.18,14.99,99.58,17.11,95.91z"/>
		<path class="st0" d="M105.64,105.63H21.89c-2.52,0-4.77-1.3-6.03-3.48c-1.26-2.18-1.26-4.78,0-6.96l41.88-72.53
			c1.26-2.18,3.51-3.48,6.03-3.48c2.52,0,4.77,1.3,6.03,3.48l41.88,72.53c1.26,2.18,1.26,4.78,0,6.96
			C110.41,104.32,108.16,105.63,105.64,105.63z M18.37,96.63c-0.74,1.27-0.74,2.79,0,4.07c0.73,1.27,2.05,2.03,3.52,2.03h83.75
			c1.47,0,2.79-0.76,3.52-2.03c0.74-1.27,0.74-2.79,0-4.07L67.28,24.1c-0.73-1.27-2.05-2.03-3.52-2.03c-1.47,0-2.79,0.76-3.52,2.03
			L18.37,96.63z"/>
	</g>
	<g>
		<polygon class="st4" points="29.57,94.11 63.76,34.88 97.96,94.11 		"/>
	</g>
	<g>
		<g>
			<path class="st2" d="M59.88,83.58c0-1.24,0.33-2.18,1-2.81s1.63-0.95,2.9-0.95c1.23,0,2.18,0.33,2.85,0.98s1.01,1.58,1.01,2.79
				c0,1.17-0.34,2.09-1.02,2.76s-1.63,1.01-2.84,1.01c-1.24,0-2.2-0.33-2.88-0.99C60.22,85.7,59.88,84.78,59.88,83.58z M66.51,76
				H61.1l-1.13-21.65h7.67L66.51,76z"/>
		</g>
	</g>
</g>
</svg>
